<?xml version="1.0" standalone="no"?>
<!DOCTYPE svg PUBLIC "-//W3C//DTD SVG 20010904//EN"
 "http://www.w3.org/TR/2001/REC-SVG-20010904/DTD/svg10.dtd">
<svg version="1.0" xmlns="http://www.w3.org/2000/svg"
 width="512.000000pt" height="512.000000pt" viewBox="0 0 512.000000 512.000000"
 preserveAspectRatio="xMidYMid meet">

<g transform="translate(0.000000,512.000000) scale(0.100000,-0.100000)"
fill="#000000" stroke="none">
<path d="M3855 4319 c-17 -6 -17 -8 -2 -8 9 -1 17 -8 17 -16 0 -9 -6 -12 -15
-9 -11 4 -19 -3 -26 -24 -10 -28 -35 -49 -46 -38 -8 8 8 26 23 26 8 0 14 5 14
10 0 23 -37 7 -59 -25 -28 -42 -38 -43 -70 -7 -18 20 -22 22 -16 7 7 -19 12
-45 14 -72 1 -7 12 -13 25 -13 13 0 29 -7 36 -15 7 -9 19 -14 25 -11 7 2 18
-1 25 -7 10 -10 12 -7 7 11 -4 19 -3 21 9 11 16 -13 20 -64 4 -54 -13 8 -13
-11 1 -38 9 -18 9 -20 -2 -9 -7 6 -21 12 -30 12 -10 0 -19 -6 -22 -12 -2 -7
-4 -1 -4 14 -1 29 -24 88 -35 88 -13 0 -18 -18 -7 -22 9 -3 9 -9 0 -25 -9 -19
-8 -22 10 -25 18 -3 14 -8 -25 -35 -25 -18 -45 -29 -43 -24 1 5 -1 9 -5 10
-22 3 -28 0 -28 -14 0 -9 -10 -19 -22 -24 -18 -6 -19 -9 -5 -14 10 -4 17 -13
17 -22 0 -9 6 -15 13 -13 7 2 25 -7 39 -18 24 -18 25 -24 14 -39 -7 -10 -18
-15 -24 -11 -7 4 -12 3 -12 -3 0 -5 7 -14 15 -18 9 -6 11 -13 5 -23 -7 -11
-11 -12 -24 0 -14 11 -16 10 -10 -4 9 -22 61 -48 102 -51 31 -2 32 -1 16 17
-10 10 -14 21 -11 25 10 9 36 -28 37 -49 0 -10 -4 -18 -10 -18 -5 0 -10 -5
-10 -11 0 -5 5 -7 10 -4 15 9 35 -17 36 -47 2 -46 3 -48 23 -48 11 0 22 -6 24
-12 4 -10 6 -10 6 0 1 6 8 12 17 12 8 0 12 5 9 10 -5 8 -11 8 -20 0 -18 -15
-31 6 -15 25 10 12 9 16 -4 21 -14 5 -14 8 -1 21 13 13 13 18 -5 43 -25 36
-25 49 0 47 12 -1 18 -7 16 -14 -3 -7 -1 -13 5 -13 7 0 8 12 3 33 -4 17 -7 41
-8 52 -1 11 -11 22 -26 26 -14 4 -19 7 -12 8 6 1 12 7 12 14 0 19 57 19 64 0
4 -9 3 -19 -2 -22 -13 -9 -21 -50 -11 -56 4 -3 17 0 27 6 15 9 23 8 40 -7 12
-10 22 -24 22 -31 0 -18 34 -50 48 -45 19 6 44 -18 33 -32 -6 -7 -6 -17 -1
-26 14 -21 12 -30 -4 -24 -7 3 -13 11 -13 17 1 33 -4 48 -13 42 -8 -5 -8 -11
0 -20 12 -14 -11 -40 -25 -27 -5 4 -5 -1 -1 -12 9 -26 -46 -89 -64 -73 -10 9
-12 8 -7 -5 4 -12 1 -18 -9 -18 -11 0 -15 -6 -11 -20 3 -13 0 -20 -10 -20 -8
0 -17 -9 -20 -20 -3 -11 -9 -17 -14 -15 -4 3 -6 13 -2 23 3 11 -1 9 -11 -6
-10 -12 -18 -31 -19 -42 -1 -13 -6 -19 -15 -15 -7 3 -17 5 -20 5 -4 0 0 4 8
10 8 5 11 12 8 16 -4 3 -13 0 -21 -8 -12 -11 -12 -16 0 -26 16 -15 18 -52 2
-52 -6 0 -8 -10 -5 -22 3 -13 3 -17 0 -10 -8 16 -24 15 -24 -2 0 -8 -11 -17
-25 -20 -14 -4 -25 -11 -25 -16 0 -5 6 -7 14 -4 8 3 25 0 38 -7 21 -11 22 -11
9 5 -18 22 -5 34 15 14 19 -19 11 -38 -16 -38 -10 0 -23 -6 -27 -14 -10 -17
-73 -32 -73 -17 0 5 10 17 22 25 12 9 18 16 12 16 -5 0 -16 -6 -22 -12 -10
-10 -19 -6 -42 19 -29 31 -30 32 -10 43 17 9 22 7 32 -15 12 -27 34 -36 24 -9
-5 13 8 53 32 98 3 5 -1 6 -8 1 -10 -6 -11 -2 -6 18 4 19 1 29 -11 36 -10 6
-14 11 -10 11 5 0 0 13 -9 30 -10 16 -15 32 -11 36 9 9 36 -21 40 -45 2 -12 9
-27 16 -34 10 -9 11 -8 6 6 -9 21 1 22 22 2 8 -8 19 -12 25 -9 6 4 0 13 -15
22 -24 15 -55 67 -49 85 1 4 -1 6 -5 6 -23 -4 -43 2 -38 11 3 6 -1 10 -11 10
-13 0 -14 3 -4 15 7 8 18 15 25 15 8 0 15 5 17 12 3 7 10 8 17 4 11 -7 11 -10
0 -17 -11 -7 -10 -9 4 -9 20 0 21 9 2 34 -7 10 -18 15 -24 11 -6 -3 -11 -1
-11 4 0 6 5 11 10 11 16 0 12 30 -5 36 -8 3 -17 14 -20 24 -3 11 -12 17 -20
14 -7 -3 -23 4 -34 15 -26 26 -26 21 0 -23 12 -20 18 -36 15 -36 -17 0 -56 25
-56 37 0 21 -16 15 -28 -11 -9 -20 -7 -27 9 -42 10 -9 17 -19 15 -21 -2 -3 2
-16 10 -31 8 -17 10 -28 3 -32 -6 -4 -1 -17 11 -33 12 -15 18 -31 15 -37 -3
-6 1 -13 9 -16 9 -3 16 -10 16 -15 0 -6 -7 -6 -18 0 -11 6 -24 6 -32 1 -12 -7
-12 -10 3 -16 9 -3 17 -10 17 -16 0 -5 -5 -6 -11 -2 -6 3 -16 0 -21 -7 -8 -11
-9 -10 -5 3 3 9 1 18 -6 21 -6 2 -12 17 -13 33 -1 16 -2 32 -3 37 -2 13 -19 7
-25 -9 -3 -8 -2 -12 4 -9 6 3 10 -1 10 -9 0 -9 -3 -16 -8 -16 -15 0 -52 31
-52 44 0 8 -6 19 -14 25 -12 10 -13 8 -9 -11 3 -13 9 -27 13 -33 9 -13 -14
-57 -25 -47 -5 4 -5 1 -1 -5 4 -7 13 -13 21 -13 7 0 15 -7 19 -15 3 -10 -1
-15 -14 -15 -10 0 -22 -5 -25 -10 -9 -14 -35 7 -35 26 0 8 -4 14 -10 14 -5 0
-7 6 -4 14 3 8 11 13 18 10 20 -8 42 24 28 38 -9 9 -12 8 -12 -5 0 -9 -5 -17
-11 -17 -7 0 -10 12 -7 28 3 22 -1 31 -20 40 -19 9 -23 8 -18 -3 3 -8 -4 -21
-15 -29 l-21 -14 22 -12 c15 -8 19 -15 12 -22 -6 -6 -8 -18 -5 -27 3 -12 0
-11 -12 4 -9 11 -19 19 -22 18 -8 -4 -8 57 1 83 4 12 16 24 27 27 17 5 19 9
10 26 -15 27 -14 41 4 41 10 0 15 -10 15 -30 0 -16 5 -30 10 -30 6 0 10 5 10
11 0 6 7 9 14 6 10 -4 13 -1 9 9 -3 7 -9 14 -13 14 -4 0 -10 10 -13 21 -5 17
-11 20 -31 15 -17 -4 -28 -1 -34 10 -6 11 -11 13 -16 5 -9 -14 -66 -15 -66 -1
0 6 5 10 12 10 6 0 3 8 -7 20 -12 13 -23 17 -34 11 -9 -5 -23 -6 -31 -4 -11 3
-12 2 -2 -4 7 -5 14 -24 15 -41 2 -35 4 -36 43 -22 33 13 39 8 24 -20 -15 -28
-47 -21 -91 19 -24 23 -35 27 -44 18 -10 -9 -9 -14 4 -23 13 -10 14 -16 2 -37
-10 -19 -11 -29 -1 -47 9 -18 14 -20 21 -9 4 7 10 11 13 8 3 -3 -2 -14 -12
-25 -42 -45 -37 -58 22 -55 33 2 46 -12 45 -49 l0 -25 -11 23 c-6 13 -17 21
-24 18 -8 -3 -16 -1 -19 4 -4 6 -11 10 -17 10 -7 0 -6 -5 1 -14 10 -11 9 -16
-5 -24 -11 -6 -13 -11 -5 -16 6 -4 11 -11 11 -17 0 -5 -9 -4 -20 3 -21 14 -28
58 -8 58 7 0 5 7 -5 18 -8 9 -19 29 -22 45 -4 15 -11 27 -15 27 -4 0 -17 16
-29 35 -14 25 -18 42 -12 57 5 14 10 17 15 10 8 -14 26 -16 26 -4 0 5 -11 14
-24 21 -20 11 -23 19 -21 56 3 36 1 42 -14 38 -9 -2 -21 -14 -26 -26 -12 -26
-62 -38 -52 -13 4 9 2 16 -3 16 -5 0 -6 8 -3 17 5 13 2 15 -12 10 -22 -9 -45
9 -45 34 0 14 7 19 30 19 17 0 30 -4 30 -10 0 -5 8 -10 18 -10 15 1 15 2 -3
15 -11 8 -27 20 -35 27 -8 7 -22 11 -32 10 -12 -2 -19 5 -24 23 l-6 26 -14
-27 c-19 -36 -18 -44 6 -44 23 0 23 0 10 -34 -8 -21 -5 -29 20 -53 32 -30 39
-49 16 -40 -8 3 -16 1 -18 -5 -3 -8 -10 -7 -26 1 -19 10 -23 8 -36 -16 l-15
-28 -1 27 c0 15 -3 29 -8 32 -4 2 -6 -14 -4 -36 4 -38 3 -39 -16 -29 -12 6
-24 16 -27 21 -13 21 -24 10 -15 -15 7 -18 6 -23 -4 -19 -16 6 -40 -21 -31
-35 4 -7 12 -7 25 1 20 13 43 2 24 -10 -14 -9 -26 -42 -15 -42 5 0 14 7 21 15
9 11 17 12 30 5 36 -19 92 -5 113 28 4 6 15 12 22 12 8 0 15 -6 15 -12 -1 -19
-79 -52 -124 -53 -24 0 -41 -6 -46 -15 -4 -8 -11 -24 -17 -35 -7 -14 -7 -25 0
-36 13 -21 2 -49 -19 -49 -13 0 -14 3 -4 15 13 16 7 45 -10 45 -6 0 -13 -13
-16 -30 -7 -33 -34 -63 -34 -37 0 8 -7 21 -17 28 -14 12 -16 12 -12 0 3 -8
-11 -29 -32 -48 -41 -37 -49 -40 -49 -17 0 15 -23 44 -34 44 -17 0 -51 -42
-72 -88 -14 -30 -29 -50 -35 -47 -7 5 -6 12 2 21 9 11 9 18 1 26 -19 19 -14
55 13 84 19 21 22 30 14 45 -11 22 -4 39 16 39 7 0 16 7 19 16 8 22 9 21 -15
27 -17 4 -19 3 -10 -6 16 -16 14 -27 -6 -27 -10 0 -26 -12 -36 -26 -10 -13
-15 -24 -10 -23 18 3 33 -2 33 -10 0 -14 -40 -4 -61 15 -11 10 -20 15 -22 13
-1 -2 -9 -13 -17 -23 -14 -18 -13 -19 2 -13 12 4 15 2 11 -9 -3 -7 -11 -14
-18 -14 -17 0 -45 33 -46 56 0 10 -3 13 -6 7 -2 -7 -12 -13 -20 -13 -10 0 -13
-6 -9 -16 4 -9 2 -13 -5 -8 -6 4 -15 1 -19 -6 -10 -17 -30 -4 -30 21 0 14 7
19 26 19 15 0 23 4 19 11 -4 5 -4 22 -1 35 6 21 9 24 22 13 21 -17 31 -2 12
18 -9 9 -31 16 -50 15 -17 0 -27 2 -21 6 5 4 9 21 8 37 -3 46 -4 48 -21 41 -9
-3 -24 4 -38 19 -13 14 -26 25 -29 25 -11 0 5 -34 21 -48 13 -10 14 -14 3 -25
-11 -9 -14 -9 -18 1 -3 6 -9 12 -14 12 -6 0 -8 -4 -4 -9 3 -5 1 -12 -5 -16 -5
-3 -10 -2 -10 4 0 6 -16 10 -35 9 -20 -1 -31 -5 -24 -9 8 -4 2 -13 -17 -25
-42 -27 -64 -57 -53 -70 12 -15 1 -44 -17 -44 -8 0 -14 -7 -14 -16 0 -8 -4
-12 -10 -9 -6 3 -7 -1 -4 -9 3 -9 11 -16 17 -16 6 0 4 -7 -5 -16 -12 -12 -20
-13 -35 -5 -14 7 -23 7 -31 -1 -9 -9 -12 -9 -12 0 0 7 -7 12 -16 12 -10 0 -13
-6 -10 -17 3 -10 1 -25 -5 -33 -8 -13 -12 -11 -27 9 -9 14 -25 34 -35 45 -16
20 -18 20 -27 4 -14 -23 -27 -23 -34 0 -3 9 -16 22 -28 27 -13 6 -21 17 -19
25 2 8 5 24 6 36 1 11 5 25 9 32 4 7 3 12 -3 12 -11 0 -51 -53 -51 -67 0 -4 5
-1 10 7 5 8 10 11 11 5 0 -5 2 -18 4 -27 5 -25 -16 -34 -30 -15 -7 10 -15 17
-19 17 -11 0 0 -42 15 -51 11 -7 11 -9 -4 -9 -14 0 -17 -5 -12 -21 5 -15 4
-19 -4 -15 -6 4 -11 2 -11 -3 0 -6 5 -11 12 -11 6 0 1 -11 -12 -25 -13 -14
-27 -25 -32 -25 -15 0 -8 58 7 64 9 3 15 14 13 23 -4 22 -49 64 -61 56 -9 -6
-47 30 -47 45 0 6 9 12 21 15 20 5 20 6 3 32 l-17 27 -22 -36 c-12 -20 -24
-34 -26 -32 -2 2 -5 -7 -5 -20 -1 -13 2 -22 6 -19 10 6 17 -13 16 -49 -1 -16
-7 -31 -15 -34 -10 -3 -12 0 -8 12 4 10 1 16 -7 16 -9 0 -12 7 -9 20 4 14 0
20 -12 20 -13 0 -15 -3 -7 -13 11 -13 2 -33 -38 -79 -27 -32 -67 -20 -49 14 9
16 8 19 -3 16 -8 -3 -12 -17 -11 -35 2 -27 0 -30 -23 -25 -14 2 -32 15 -40 27
-10 15 -21 21 -34 18 -11 -3 -20 0 -20 6 0 6 5 11 10 11 6 0 10 7 10 15 0 7 8
19 18 25 15 10 15 11 -3 5 -37 -12 -40 -10 -42 30 -2 22 -4 46 -5 53 -3 22
-15 13 -24 -19 -14 -48 -35 -57 -73 -30 -35 25 -37 24 -18 -13 8 -14 17 -23
21 -19 4 4 4 -1 0 -12 -5 -11 -9 -14 -12 -7 -2 7 -9 12 -15 12 -7 0 -33 23
-58 50 -25 28 -42 50 -37 50 5 0 6 5 3 10 -4 6 -11 8 -16 5 -5 -4 -10 0 -11 7
0 7 -2 18 -2 23 -1 6 -5 16 -9 23 -5 6 -4 12 2 12 6 0 17 -13 26 -30 9 -16 21
-30 28 -29 9 0 9 2 0 6 -7 2 -13 9 -13 14 0 6 4 7 10 4 6 -3 7 1 4 10 -6 14
-53 45 -69 45 -3 0 -5 -8 -5 -18 0 -21 -37 -55 -50 -47 -6 4 -10 2 -10 -3 0
-16 -32 -23 -47 -11 -18 15 -24 9 -17 -18 4 -13 11 -20 20 -16 8 3 23 -6 35
-21 11 -14 27 -26 35 -26 13 0 13 -3 -1 -17 -14 -14 -18 -14 -26 -2 -7 12 -9
12 -9 -1 0 -12 -2 -12 -8 -2 -5 8 -16 10 -27 6 -14 -6 -17 -4 -12 9 5 14 1 17
-26 14 -31 -2 -32 -1 -29 34 2 23 -3 41 -13 49 -13 11 -14 10 -9 -4 3 -9 2
-16 -3 -16 -11 0 -12 -43 -1 -51 10 -6 0 -39 -11 -39 -4 0 -13 11 -19 25 -7
15 -8 25 -2 25 6 0 10 5 10 10 0 6 -13 10 -29 10 -24 0 -28 3 -24 20 4 17 2
19 -13 13 -17 -6 -17 -5 -6 10 16 19 10 33 -17 40 -17 4 -18 1 -10 -27 10 -34
4 -99 -13 -133 -13 -27 -28 -31 -22 -5 3 9 -2 26 -10 37 -14 18 -15 18 -16 3
0 -28 -30 -22 -30 5 0 30 10 40 27 26 7 -6 13 -10 14 -8 7 39 7 49 -1 49 -6 0
-10 -5 -10 -11 0 -7 -10 -9 -25 -7 -14 3 -28 1 -31 -3 -3 -5 0 -9 5 -9 6 0 11
-5 11 -11 0 -7 -9 -9 -21 -6 -20 5 -20 5 -3 -14 9 -10 12 -19 7 -19 -6 0 -13
-9 -16 -20 -3 -11 -10 -20 -15 -20 -6 0 -8 8 -5 19 8 31 -16 35 -28 4 -7 -18
-9 -86 -6 -193 5 -160 24 -271 66 -382 12 -33 29 -44 37 -24 3 9 15 16 26 16
13 0 18 5 15 14 -4 10 1 12 16 9 21 -4 21 -4 2 8 -11 6 -21 12 -21 13 -9 7
-13 46 -5 46 6 0 11 -6 11 -14 0 -8 7 -17 16 -20 14 -5 15 -4 5 8 -10 12 -8
18 12 31 14 9 29 14 33 13 9 -3 14 5 14 23 0 5 -5 7 -12 3 -7 -5 -8 -3 -4 5 6
9 13 8 27 -5 10 -9 16 -21 13 -25 -3 -5 2 -9 10 -9 9 0 16 -5 16 -11 0 -6 -9
-8 -20 -4 -15 5 -18 3 -14 -9 3 -9 15 -16 26 -16 17 0 20 5 16 30 -3 17 0 30
5 30 5 0 4 6 -3 14 -6 8 -18 12 -26 9 -8 -3 -14 0 -14 6 0 6 5 11 11 11 5 0 7
5 4 10 -10 17 10 11 26 -7 15 -19 19 -27 19 -42 0 -5 7 -12 16 -15 14 -5 15
-4 4 9 -11 13 -7 19 11 17 4 -1 9 9 11 22 4 19 1 23 -11 18 -9 -3 -13 -2 -9 3
4 4 3 15 -4 22 -9 11 -9 17 3 24 18 12 41 8 47 -9 2 -8 -2 -10 -15 -5 -16 6
-16 5 -4 -10 7 -9 20 -17 27 -17 8 0 14 -8 14 -17 0 -9 5 -32 12 -50 10 -28
10 -36 -1 -42 -32 -20 31 -107 64 -88 13 7 16 6 11 -2 -4 -6 -2 -11 3 -11 12
0 10 -27 -2 -47 -14 -22 4 -38 20 -18 10 15 16 16 25 7 19 -19 30 -14 23 10
-6 16 -4 20 8 15 9 -3 18 1 21 9 3 8 -1 14 -9 14 -8 0 -15 7 -15 17 0 15 2 14
20 -2 11 -10 28 -15 39 -12 11 2 22 -1 25 -8 2 -8 15 -11 30 -8 21 4 26 1 26
-15 0 -30 -40 -64 -66 -58 -19 5 -22 2 -20 -23 2 -29 1 -29 -24 -16 -14 7 -32
25 -38 40 -7 15 -18 25 -25 22 -13 -5 -13 -11 -2 -39 5 -13 2 -18 -9 -18 -9 0
-16 6 -16 13 0 8 -7 14 -14 14 -8 0 -15 -3 -14 -6 2 -20 -4 -31 -15 -31 -14 0
-17 -11 -17 -69 0 -19 -3 -31 -6 -28 -9 8 -34 -18 -34 -35 0 -10 3 -9 10 2 6
10 10 11 10 3 0 -7 5 -13 11 -13 6 0 9 6 6 14 -5 12 0 13 26 4 18 -6 38 -15
44 -21 9 -7 13 -4 13 8 0 17 1 17 18 2 25 -23 29 -22 46 11 8 15 16 23 16 17
6 -45 6 -57 -2 -61 -4 -3 -6 -9 -3 -14 3 -4 -9 -13 -26 -19 -27 -9 -30 -13
-19 -26 7 -9 19 -14 27 -11 7 3 13 0 13 -7 1 -7 6 -5 14 6 7 9 19 17 25 17 7
0 10 4 7 9 -7 11 32 47 41 38 3 -4 -1 -15 -10 -25 -10 -10 -17 -24 -17 -30 0
-7 -7 -12 -17 -12 -9 0 -14 -3 -10 -6 3 -3 2 -17 -3 -30 -7 -18 -6 -22 5 -17
8 3 15 11 15 19 0 20 41 54 64 54 12 1 32 7 46 16 23 14 24 14 2 9 -20 -6 -22
-3 -20 22 2 25 6 29 25 25 13 -3 23 1 23 7 0 7 5 9 11 6 5 -4 8 -12 6 -18 -2
-7 3 -18 12 -25 9 -8 11 -11 4 -8 -14 7 -43 -20 -43 -40 0 -8 3 -13 8 -11 4 3
16 1 27 -3 13 -5 26 -2 37 8 16 13 18 13 24 -2 9 -24 24 -19 24 9 0 18 -5 25
-19 25 -14 0 -18 5 -14 20 4 16 8 18 20 9 20 -17 43 5 24 24 -11 10 -13 9 -8
-5 4 -10 2 -18 -3 -18 -6 0 -10 12 -11 28 0 15 -2 43 -4 62 -4 40 12 80 32 80
7 0 13 -4 13 -10 0 -5 10 -9 23 -9 12 1 36 -4 52 -10 28 -12 29 -13 12 -26
-12 -8 -14 -15 -8 -20 8 -4 8 -12 1 -26 -6 -11 -15 -17 -19 -14 -5 3 -11 -1
-14 -9 -3 -8 1 -17 9 -20 9 -3 12 -2 9 5 -4 6 2 8 18 4 30 -8 44 10 20 24 -15
9 -16 10 -2 11 9 0 24 -9 34 -20 17 -19 52 -29 41 -11 -3 4 7 28 22 52 16 24
31 52 35 61 4 11 12 15 22 12 11 -5 14 -2 9 10 -3 9 -4 16 -1 16 18 0 12 -34
-10 -61 -22 -25 -24 -32 -12 -40 11 -7 9 -10 -9 -15 -30 -9 -22 -29 11 -28 18
0 23 -3 17 -11 -5 -6 -11 -22 -14 -36 -2 -13 -9 -23 -15 -21 -9 2 -9 -4 0 -20
12 -23 12 -22 23 9 6 18 15 32 21 30 5 -1 16 10 23 26 11 22 18 26 40 22 15
-3 21 -2 15 1 -19 8 -16 27 3 20 8 -3 12 -2 9 4 -3 6 0 10 7 10 10 0 10 2 -1
9 -19 12 -5 30 19 24 11 -3 20 0 20 6 0 5 -7 8 -16 4 -12 -4 -15 -2 -12 8 6
18 44 19 40 1 -1 -8 2 -11 7 -7 6 3 7 13 4 23 -3 9 -3 14 2 10 9 -8 35 15 35
31 0 6 3 10 8 10 20 -3 30 3 35 21 3 11 2 20 -3 20 -4 0 -7 8 -6 18 1 11 -5
16 -18 14 -14 -3 -17 1 -12 13 3 9 6 19 6 23 0 3 6 -3 14 -13 12 -16 16 -17
29 -6 9 7 13 19 10 27 -3 8 0 14 6 14 6 0 11 -6 11 -14 0 -8 9 -12 24 -11 19
2 23 -1 19 -16 -3 -10 2 -26 11 -34 9 -9 16 -12 16 -6 0 6 7 7 17 4 11 -4 14
-3 9 6 -4 6 -2 20 5 29 7 9 9 14 5 10 -5 -4 -14 0 -21 9 -7 9 -26 16 -43 16
-17 0 -29 3 -27 7 3 4 -5 16 -18 26 -15 13 -18 14 -9 3 10 -14 10 -18 -4 -23
-24 -9 -41 -7 -25 3 12 8 12 12 2 24 -10 13 -8 17 9 22 21 7 21 8 -12 36 l-33
29 44 -22 c44 -22 80 -30 82 -19 0 3 2 16 3 28 2 13 13 32 27 44 l24 20 14
-42 c8 -25 21 -44 32 -46 11 -3 19 -12 19 -21 0 -8 3 -12 6 -9 4 4 15 -3 25
-14 9 -11 20 -20 23 -20 3 1 17 1 31 1 23 0 24 -2 13 -20 -7 -11 -22 -20 -33
-20 -17 0 -17 -2 -5 -10 13 -8 13 -10 -2 -10 -9 0 -19 6 -21 13 -3 7 -6 6 -6
-5 -1 -9 4 -20 9 -23 16 -10 1 -25 -18 -19 -13 5 -14 4 -3 -4 9 -7 10 -12 2
-16 -6 -4 -8 -12 -5 -18 5 -7 2 -9 -8 -6 -29 12 -40 -7 -19 -33 11 -13 20 -19
21 -13 0 7 11 9 28 6 24 -5 26 -4 13 11 -12 15 -11 17 8 17 11 0 21 6 21 14 0
8 6 17 13 19 10 4 10 6 0 6 -20 1 -15 24 10 46 13 11 26 28 30 38 3 9 14 17
24 18 16 0 16 2 -2 10 -18 9 -18 9 3 5 17 -3 22 -1 18 9 -3 8 -1 17 4 20 15 9
12 -29 -2 -44 -10 -11 -10 -14 0 -18 6 -3 12 -12 12 -20 0 -11 5 -13 18 -8 9
5 28 9 41 10 14 1 27 7 29 13 2 7 -5 11 -19 10 -27 -3 -33 20 -9 39 21 17 43
16 36 -2 -3 -8 2 -21 10 -30 9 -8 11 -15 6 -15 -5 0 -9 -11 -9 -24 0 -21 2
-23 22 -16 13 5 26 6 31 2 4 -4 4 -1 0 6 -4 6 -2 12 3 12 6 0 11 7 11 15 0 8
-4 15 -10 15 -14 0 -8 49 7 62 14 11 16 3 15 -65 -1 -35 0 -37 15 -25 11 9 17
10 20 2 2 -6 11 -20 19 -30 14 -18 15 -18 9 3 -3 12 -1 24 5 28 7 4 2 19 -15
41 -19 25 -22 34 -11 34 8 0 16 -6 19 -12 2 -7 4 0 4 16 0 19 -9 38 -26 54
l-26 24 35 -19 c32 -17 35 -24 36 -64 1 -47 28 -119 44 -119 6 0 10 -7 10 -15
0 -9 7 -18 15 -21 8 -4 15 -12 15 -19 0 -8 4 -17 10 -20 15 -9 0 28 -17 42
-16 13 -14 49 2 42 6 -2 9 -8 7 -13 -2 -5 6 -15 16 -22 33 -23 62 -80 49 -95
-7 -7 2 -2 19 12 l32 24 -21 17 c-12 9 -18 20 -14 24 4 5 19 -4 32 -18 20 -22
21 -27 9 -32 -8 -3 -12 -11 -8 -17 5 -8 10 -6 16 5 11 20 24 21 32 0 3 -9 2
-12 -5 -9 -17 11 -50 -27 -49 -55 3 -41 -11 -70 -32 -70 -11 0 -18 -5 -16 -12
3 -7 -1 -19 -9 -26 -20 -21 -17 -45 5 -33 10 5 24 6 33 1 19 -11 79 23 79 44
0 8 6 16 13 19 16 6 20 64 6 72 -5 4 -14 -5 -21 -19 -6 -14 -18 -26 -26 -26
-12 0 -10 5 6 20 12 12 22 27 22 35 0 8 7 18 16 23 23 13 11 62 -16 62 -32 0
-32 17 0 51 16 19 30 37 30 42 0 5 7 7 15 3 8 -3 15 -1 15 4 0 6 -4 10 -10 10
-5 0 -10 5 -10 10 0 6 6 9 13 8 7 -2 11 6 10 22 -1 14 0 19 3 13 3 -7 14 -13
24 -13 35 0 52 -11 39 -26 -6 -8 -10 -14 -8 -15 39 -7 59 -6 60 4 2 18 2 20
-5 47 l-7 25 19 -22 c20 -23 32 -21 32 4 0 8 -4 12 -9 9 -13 -8 -28 15 -33 51
-4 32 -4 33 15 15 19 -17 20 -16 15 11 -4 21 -2 27 8 23 8 -3 14 -1 14 5 0 6
16 8 40 4 43 -6 46 -3 28 38 -13 28 -35 38 -24 12 6 -16 5 -17 -36 -19 -16 -1
-28 2 -28 6 0 4 5 8 11 8 5 0 7 5 4 10 -3 6 -3 16 2 23 19 30 30 76 19 81 -12
4 32 41 49 41 5 0 10 -16 10 -36 0 -30 -3 -35 -19 -31 -12 3 -17 1 -13 -5 4
-6 0 -16 -8 -23 -21 -17 -20 -44 1 -36 9 4 22 2 29 -4 9 -8 14 -5 18 11 4 13
10 18 18 13 9 -5 10 -2 6 9 -4 10 -2 17 5 17 7 0 6 5 -2 15 -20 24 26 19 50
-5 12 -12 24 -18 29 -16 9 6 51 -30 51 -44 0 -5 -9 -14 -20 -20 -11 -6 -18
-16 -14 -22 4 -7 9 -6 15 3 8 12 11 11 19 -1 15 -22 12 -30 -13 -39 -13 -5
-28 -16 -35 -24 -11 -12 -7 -15 20 -20 33 -5 54 2 31 10 -18 6 -16 23 1 23 8
0 17 -14 21 -30 7 -30 36 -55 49 -42 4 3 4 -1 1 -10 -4 -11 1 -20 15 -28 15
-8 20 -18 17 -32 -6 -23 9 -64 35 -92 17 -19 23 -36 13 -36 -2 0 -18 14 -35
30 -17 17 -36 30 -43 30 -14 -1 -55 -30 -41 -30 5 0 15 -13 22 -30 14 -31 31
-37 62 -20 13 7 27 7 43 -1 20 -9 30 -8 50 6 15 9 32 13 38 9 7 -4 9 -3 6 2
-3 6 -2 16 4 24 6 11 9 4 9 -23 0 -40 -7 -52 -52 -81 -28 -18 -28 -18 -10 -49
13 -23 14 -31 4 -34 -10 -4 -10 -8 -2 -18 9 -10 7 -20 -4 -38 -9 -13 -13 -27
-9 -31 4 -4 1 -11 -7 -16 -13 -8 -13 -13 -2 -31 11 -18 11 -23 1 -30 -10 -6
-10 -10 0 -22 10 -13 9 -15 -11 -10 -19 5 -21 3 -10 -8 16 -18 15 -29 -3 -29
-8 0 -15 -5 -15 -11 0 -26 22 -47 57 -53 35 -6 102 -45 78 -46 -6 0 -16 5 -22
11 -15 15 -73 16 -98 1 -11 -6 -14 -12 -7 -12 6 0 12 -7 12 -16 0 -9 5 -12 13
-8 9 6 9 5 -1 -8 -10 -12 -9 -18 3 -28 14 -12 14 -15 -3 -30 -10 -9 -24 -19
-31 -21 -16 -6 -26 -99 -11 -99 7 0 7 -7 0 -20 -6 -11 -18 -20 -26 -20 -8 0
-12 -4 -9 -10 3 -5 15 -10 26 -10 19 0 19 -1 2 -24 -13 -17 -21 -21 -30 -14
-7 6 -11 14 -8 18 4 7 -43 57 -51 53 -2 -2 -14 -3 -26 -3 l-23 1 23 19 c13 11
21 24 17 30 -5 8 -11 8 -19 1 -7 -6 -16 -8 -19 -4 -15 14 -5 20 31 18 33 -3
34 -2 14 8 -22 10 -22 17 -5 65 3 6 0 12 -6 12 -6 0 -11 -5 -11 -12 0 -8 -3
-9 -10 -2 -10 10 -16 36 -19 87 0 9 -8 17 -16 17 -8 0 -15 5 -15 10 0 23 -17
6 -40 -42 -16 -33 -26 -45 -28 -34 -3 13 -7 14 -17 6 -10 -8 -15 -8 -21 1 -4
7 -2 15 4 17 7 2 10 8 6 13 -9 15 -24 10 -24 -7 0 -29 -25 -8 -31 27 -4 19 -7
28 -8 21 0 -8 -19 -31 -41 -52 -42 -40 -43 -43 -44 -130 -1 -55 -1 -55 -33
-58 -33 -3 -49 -32 -17 -32 8 0 13 -4 9 -9 -3 -5 -1 -12 5 -16 14 -8 13 -45
-1 -45 -6 0 -8 7 -5 17 7 16 -8 33 -31 33 -6 0 -14 -8 -16 -17 -4 -16 -5 -16
-6 1 -1 12 -6 16 -16 12 -9 -3 -15 0 -15 8 0 10 -11 12 -44 9 -48 -6 -66 8
-44 34 10 13 10 17 1 20 -15 5 -17 33 -3 33 6 0 10 7 10 15 0 13 -4 13 -22 3
-13 -7 -26 -17 -30 -23 -8 -11 0 -27 12 -20 4 3 10 -1 13 -9 6 -15 -9 -16 -31
-2 -11 7 -12 4 -2 -13 6 -12 15 -19 21 -16 5 4 9 -8 9 -24 0 -35 -6 -38 -31
-15 -16 15 -17 14 -12 -8 4 -12 12 -27 18 -33 18 -14 26 -43 15 -50 -6 -4 -10
-1 -10 4 0 6 -8 11 -17 12 -11 0 -13 3 -5 6 20 8 14 23 -9 23 -14 0 -19 5 -16
14 4 10 0 12 -14 9 -10 -3 -19 -9 -19 -14 0 -14 -36 -11 -49 4 -8 10 -7 19 4
33 19 25 19 35 0 28 -19 -8 -20 20 -1 38 12 12 13 25 7 74 0 6 -14 11 -30 12
-30 1 -44 -18 -55 -73 l-6 -30 19 22 c22 26 35 19 19 -11 -7 -11 -12 -24 -11
-27 1 -3 -9 -12 -22 -19 -14 -7 -25 -18 -25 -23 0 -6 -8 -19 -17 -29 -14 -16
-15 -23 -5 -39 15 -24 6 -43 -15 -34 -13 4 -14 3 -3 -10 14 -17 3 -20 -20 -5
-10 6 -20 4 -31 -6 -11 -10 -26 -13 -43 -8 -31 7 -34 20 -6 27 23 6 27 27 6
27 -26 0 -29 21 -7 51 20 27 20 29 3 29 -10 0 -24 -6 -31 -12 -11 -11 -12 -8
-7 14 3 14 9 34 13 44 10 26 -16 7 -27 -20 -8 -19 -9 -18 -7 8 1 15 8 31 15
34 45 17 88 96 62 112 -10 6 -8 13 8 30 12 14 22 18 27 11 3 -6 11 -11 16 -11
6 0 4 7 -5 15 -8 8 -29 15 -47 15 -31 0 -32 1 -17 17 14 13 22 14 41 6 19 -9
27 -7 46 13 23 24 41 24 41 -1 0 -8 4 -16 9 -20 6 -3 8 10 5 30 -2 20 0 35 6
35 5 0 10 7 10 16 0 8 4 12 10 9 6 -3 7 1 4 10 -4 11 -10 12 -18 6 -7 -6 -23
-7 -37 -4 -21 6 -23 5 -10 -10 20 -25 -4 -22 -30 4 -16 16 -23 18 -35 8 -8 -6
-14 -18 -14 -25 0 -8 -9 -14 -19 -14 -23 0 -36 -16 -21 -25 5 -3 10 -1 10 4 0
6 5 11 10 11 16 0 11 -27 -6 -34 -9 -4 -23 -1 -30 5 -11 9 -14 7 -14 -9 0 -11
-8 -22 -20 -25 -11 -3 -20 -12 -20 -20 0 -8 -7 -17 -14 -20 -11 -4 -13 -1 -9
11 5 16 5 16 -12 0 -23 -21 -10 -41 22 -33 18 4 24 2 21 -7 -7 -22 -48 -21
-72 1 l-23 21 -11 -25 c-7 -14 -12 -32 -12 -40 0 -8 -4 -15 -10 -15 -5 0 -10
5 -10 11 0 6 -9 22 -20 36 -12 16 -20 20 -20 11 0 -8 4 -18 9 -23 5 -6 12 -20
16 -32 5 -19 3 -23 -17 -23 -13 0 -43 -7 -67 -16 -51 -17 -93 -12 -85 11 4 8
13 15 22 15 8 0 13 2 10 5 -3 4 -18 3 -32 -1 -34 -8 -50 -37 -36 -64 8 -15 8
-20 -1 -20 -6 0 -13 9 -16 20 -6 24 -29 21 -27 -4 2 -21 -6 -20 -21 1 -9 13
-9 22 2 44 8 16 11 33 8 39 -10 16 -25 2 -18 -17 4 -10 -1 -21 -13 -30 -10 -8
-18 -16 -16 -18 8 -17 -1 -24 -14 -11 -8 9 -12 21 -8 27 4 7 -2 6 -17 -2 -13
-7 -25 -10 -26 -8 -1 2 -13 -5 -25 -16 -13 -11 -30 -23 -38 -27 -9 -4 -2 -7
18 -7 19 -1 35 -7 38 -16 8 -19 24 -19 24 0 0 19 14 19 29 1 7 -9 9 -25 4 -43
-4 -15 -6 -33 -5 -40 2 -6 -7 -11 -18 -10 -11 1 -20 5 -20 10 0 5 -13 7 -29 4
-43 -9 -74 2 -68 24 3 11 1 19 -4 19 -4 0 -6 6 -3 14 3 8 -3 16 -15 19 -15 4
-21 13 -21 35 0 25 -6 32 -31 41 -18 6 -43 11 -55 11 -15 0 -24 6 -24 16 0 11
-5 14 -16 10 -9 -3 -18 -6 -20 -6 -3 0 -2 -5 2 -12 5 -7 3 -8 -5 -3 -8 4 -21
-1 -32 -14 -16 -17 -18 -25 -9 -41 12 -23 2 -26 -24 -7 -9 7 -16 19 -14 26 2
8 -8 18 -22 22 -14 4 -18 7 -9 8 23 1 44 51 27 62 -10 7 -10 9 0 9 7 0 15 -7
18 -15 7 -18 23 -20 20 -2 -1 6 -7 21 -13 32 -10 17 -13 17 -29 5 -13 -12 -18
-12 -21 -2 -3 6 -11 12 -19 12 -8 0 -15 -6 -16 -12 0 -7 -2 -17 -2 -23 -3 -21
-17 -34 -32 -28 -8 3 -13 12 -10 19 3 7 1 16 -4 19 -6 4 -10 -3 -10 -14 0 -10
-6 -22 -12 -25 -9 -4 -6 -10 10 -22 30 -22 28 -37 -8 -51 -33 -12 -35 -11 -20
18 9 16 7 19 -8 19 -15 0 -19 -8 -20 -36 -1 -20 -4 -45 -8 -56 -3 -10 1 -29
10 -42 11 -17 12 -26 3 -35 -8 -8 -6 -11 9 -11 17 -1 18 -2 2 -13 -15 -12 -13
-14 14 -26 16 -7 32 -21 36 -30 3 -9 13 -21 21 -28 13 -10 13 -12 2 -13 -18 0
109 -129 127 -130 10 0 8 5 -4 17 -11 11 -13 18 -5 21 6 2 9 8 6 13 -4 5 2 6
11 2 13 -5 15 -3 9 7 -6 10 -4 12 10 6 14 -5 15 -4 7 7 -8 10 -4 21 16 45 29
33 44 41 41 20 -1 -7 1 -21 5 -30 10 -22 0 -52 -14 -43 -6 4 -7 -1 -3 -11 4
-11 8 -13 11 -6 4 13 22 6 22 -8 0 -12 -58 -42 -68 -36 -4 2 -16 -2 -26 -10
-18 -13 -18 -14 -1 -21 11 -3 34 -7 52 -7 18 -1 33 -4 33 -8 0 -3 8 -5 18 -3
9 2 20 4 25 4 4 1 7 8 7 17 0 14 2 15 17 3 15 -12 16 -12 10 6 l-7 20 16 -20
c16 -20 16 -19 11 5 -7 28 5 56 20 47 5 -3 15 -2 23 3 12 8 12 12 2 22 -10 10
-14 10 -21 0 -6 -10 -10 -10 -20 2 -19 22 -5 38 20 23 15 -9 21 -9 27 0 5 8
14 7 32 -3 25 -15 25 -15 2 -10 -23 5 -24 4 -5 -16 10 -12 13 -19 7 -15 -16 9
-33 -32 -32 -78 1 -42 14 -69 29 -59 5 3 20 -3 34 -14 29 -23 75 -18 82 9 3
11 10 19 17 20 6 0 21 2 34 3 16 2 22 -3 22 -18 1 -20 1 -20 14 -3 11 14 15
15 20 5 3 -7 4 -3 2 9 -3 17 6 28 36 48 22 14 45 24 51 21 7 -2 2 -8 -10 -11
-13 -4 -20 -11 -17 -16 3 -5 10 -6 16 -3 7 5 9 1 5 -9 -3 -10 -2 -17 3 -17 6
0 10 3 10 8 1 18 18 32 34 26 13 -5 14 -9 5 -20 -6 -8 -9 -21 -5 -29 3 -9 -1
-18 -9 -21 -18 -7 -20 -23 -2 -20 28 4 33 17 31 80 -1 47 2 66 12 70 8 3 11
12 7 22 -4 12 -3 15 6 10 13 -8 12 -54 -2 -73 -5 -7 -1 -15 10 -22 15 -8 16
-13 5 -30 -11 -20 -10 -21 30 -23 24 0 55 -2 69 -2 17 -1 25 3 22 10 -2 7 8
19 24 28 15 8 23 15 17 16 -6 0 -23 -9 -37 -20 -32 -25 -45 -26 -23 -1 14 16
15 23 6 41 -10 18 -9 21 2 17 7 -2 12 -9 11 -15 -2 -6 4 -9 12 -6 31 12 7 49
-25 39 -19 -6 -21 -4 -15 17 4 17 4 19 -4 9 -5 -8 -19 -16 -31 -18 -17 -2 -21
1 -16 13 3 8 6 18 6 20 0 2 9 4 21 4 16 0 19 4 14 20 -4 13 -2 20 7 20 7 1 3
9 -11 20 -32 27 -21 47 30 55 24 4 49 14 57 21 17 18 32 18 32 0 0 -8 9 -18
20 -21 20 -6 20 -7 -2 -24 -20 -17 -21 -20 -6 -34 11 -11 18 -13 26 -5 14 14
32 1 32 -23 0 -12 -7 -19 -20 -19 -10 0 -24 -9 -30 -19 -15 -28 -13 -33 10
-26 15 5 20 2 20 -12 0 -15 3 -14 19 6 18 24 19 24 25 4 4 -11 4 -28 0 -37 -6
-16 3 -20 39 -17 9 1 17 -3 17 -9 0 -7 7 -10 15 -7 8 4 17 2 19 -2 7 -11 104
5 121 19 17 14 55 4 55 -15 0 -9 -6 -12 -15 -8 -15 5 -55 -22 -55 -37 0 -4 12
-5 26 -2 19 3 25 1 20 -7 -11 -18 5 -13 19 6 9 12 31 18 81 20 38 2 74 9 82
16 8 6 38 11 67 11 38 1 51 4 48 14 -3 7 0 10 9 7 9 -4 14 2 15 15 1 13 -6 24
-19 29 -16 6 -18 10 -9 16 8 4 17 2 22 -6 8 -12 11 -12 18 1 9 12 11 12 17 -3
3 -9 10 -15 15 -12 4 3 13 -4 19 -15 6 -11 16 -20 23 -20 11 0 51 -38 44 -41
-1 -1 -18 -3 -37 -4 -19 -2 -69 -8 -110 -14 -41 -6 -106 -14 -145 -18 -41 -5
-68 -12 -65 -18 3 -5 14 -9 25 -8 11 2 30 4 42 5 11 2 19 6 17 9 -2 5 63 4 95
0 2 -1 -2 -8 -9 -16 -6 -8 -9 -19 -6 -24 4 -6 -11 -19 -34 -31 -37 -19 -53
-40 -30 -40 6 0 10 -12 10 -26 0 -17 4 -23 12 -18 8 5 9 2 5 -10 -4 -10 -3
-15 3 -11 6 3 10 1 10 -5 0 -6 5 -8 10 -5 6 3 10 -2 11 -12 0 -10 3 -13 6 -5
7 19 23 14 23 -7 0 -11 5 -23 10 -26 6 -3 10 -1 10 6 0 6 10 10 23 7 18 -4 23
0 22 16 0 12 -4 26 -8 33 -4 7 -5 23 -1 37 5 22 9 23 36 15 17 -4 35 -6 39 -3
5 3 9 -2 9 -10 0 -9 -6 -16 -14 -16 -9 0 -12 -7 -9 -21 l6 -22 17 23 c12 16
19 19 25 11 4 -7 13 -10 21 -7 9 3 14 -2 14 -14 0 -15 -7 -20 -27 -20 -14 0
-23 -3 -20 -7 4 -3 42 -7 85 -7 61 -1 77 -4 77 -16 1 -19 14 -40 25 -40 5 0 7
12 6 27 -2 16 -4 38 -5 51 -1 24 -41 47 -52 30 -10 -15 -16 3 -17 49 -2 48 11
62 34 38 15 -15 18 -15 35 1 18 16 18 18 2 36 -19 21 -18 23 20 32 17 4 27 2
27 -4 0 -6 -5 -8 -12 -4 -7 4 -8 3 -4 -4 5 -9 13 -9 28 -1 16 9 18 13 7 20
-11 6 -11 11 -1 21 9 9 12 9 12 -2 0 -10 3 -11 11 -3 16 16 1 36 -22 30 -11
-3 -17 -1 -13 4 3 5 12 9 20 9 8 0 13 3 13 7 -4 22 2 47 9 38 10 -15 55 -16
64 -2 4 7 12 12 18 12 5 0 10 3 10 8 0 4 0 12 0 18 0 5 -5 7 -12 3 -7 -5 -8
-3 -3 6 4 7 2 16 -6 22 -9 6 -3 7 20 2 31 -6 33 -5 28 15 -5 19 -3 20 11 9 13
-11 15 -11 9 5 -4 10 -2 17 5 17 6 0 8 3 5 6 -12 12 12 41 31 39 22 -1 52 -28
52 -45 0 -7 -7 -10 -15 -6 -8 3 -15 1 -15 -4 0 -6 6 -10 13 -10 8 0 8 -3 -2
-9 -20 -13 3 -41 29 -36 10 2 21 -3 24 -11 3 -8 12 -14 21 -14 8 0 15 -4 15
-10 0 -16 -38 -50 -56 -50 -14 0 -14 -3 -4 -15 9 -10 9 -15 1 -16 -22 -3 -27
-5 -68 -34 -23 -17 -40 -35 -38 -42 2 -7 -3 -26 -11 -42 -16 -31 -31 -43 -21
-16 4 8 2 17 -3 20 -6 4 -10 -1 -10 -10 0 -9 -11 -27 -25 -40 l-24 -25 21 -20
c27 -25 39 -25 45 0 3 11 11 19 18 18 17 -4 305 259 305 278 0 8 -7 17 -15 20
-25 10 -5 26 29 23 44 -4 63 9 39 27 -17 13 -17 13 4 14 30 0 40 20 11 20 -16
0 -19 3 -10 9 7 4 12 12 10 17 -7 21 29 51 67 57 22 4 41 11 43 17 2 5 13 10
25 11 22 0 22 0 -1 10 -27 10 -26 45 1 43 9 -1 17 2 17 7 0 5 8 6 18 3 14 -5
15 -4 2 5 -12 9 -12 13 -2 19 16 11 26 62 12 62 -5 0 -10 -4 -10 -10 0 -14
-36 -13 -63 2 -20 10 -21 10 -8 -5 9 -11 10 -17 2 -17 -10 0 -15 12 -12 35 0
6 -9 15 -21 20 -12 6 -26 19 -32 30 -6 11 -20 28 -30 37 -22 21 -14 37 9 18
16 -13 18 -9 15 27 -1 22 41 59 58 49 4 -3 14 11 21 30 13 36 45 45 47 14 3
-44 5 -50 19 -50 12 0 13 5 4 27 -5 14 -8 32 -5 40 7 17 -3 43 -16 43 -6 0 -8
-7 -4 -15 7 -19 2 -19 -33 -1 -35 19 -59 46 -41 46 8 0 11 3 8 6 -4 3 -15 1
-27 -5 -13 -7 -22 -8 -26 -1 -11 17 -30 11 -40 -12 -6 -13 -17 -22 -24 -20 -8
2 -18 -3 -22 -10 -6 -9 -13 -8 -28 7 -12 10 -24 15 -28 12 -3 -4 -1 -7 5 -7 8
0 12 -19 12 -50 0 -38 -4 -50 -15 -50 -14 0 -20 -24 -16 -57 1 -7 -3 -13 -9
-13 -7 0 -9 13 -6 34 5 28 2 33 -12 32 -11 -1 -16 6 -15 17 0 11 -9 23 -23 29
-13 6 -24 17 -24 25 0 7 -7 13 -15 13 -8 0 -15 -4 -15 -9 0 -5 -13 -3 -29 5
-23 12 -29 21 -27 42 1 15 -2 33 -8 40 -7 10 -5 16 5 23 25 16 29 10 29 -39 0
-27 3 -52 7 -55 11 -12 31 13 26 33 -3 11 0 20 6 20 6 0 11 -4 11 -10 0 -5 13
-7 30 -4 16 4 36 2 42 -4 8 -6 32 -7 63 -2 28 4 54 5 59 2 5 -3 6 0 2 6 -3 6
-2 13 4 17 12 7 14 26 3 24 -28 -5 -43 3 -43 22 0 18 2 19 15 9 8 -7 15 -8 15
-2 0 5 -6 15 -14 22 -21 17 -8 40 23 40 20 0 23 -2 11 -10 -12 -8 -12 -10 -1
-10 8 0 20 -8 28 -17 8 -10 12 -12 8 -5 -8 15 17 16 33 0 7 -7 8 -17 1 -30
-14 -26 6 -22 24 5 13 20 13 25 1 33 -11 7 -12 16 -5 42 6 21 6 30 0 26 -15
-9 -41 17 -34 35 4 10 -2 8 -18 -7 -26 -25 -43 -28 -51 -9 -3 6 -3 2 0 -10 5
-23 -9 -32 -21 -13 -4 6 -11 7 -17 4 -6 -4 -13 -2 -17 3 -3 6 -17 14 -31 18
l-25 8 25 -21 25 -21 -22 -1 c-13 0 -23 5 -23 11 0 7 -9 5 -24 -4 -19 -13 -26
-14 -35 -4 -12 15 -4 29 24 45 l20 11 -20 1 c-11 0 -32 -7 -47 -14 -15 -8 -30
-11 -33 -6 -3 5 -13 6 -22 3 -12 -5 -15 -2 -10 10 3 9 2 17 -3 17 -6 0 -10 9
-10 20 0 11 -6 23 -13 26 -7 2 -13 14 -14 25 -2 16 1 18 11 10 10 -9 15 -7 20
6 5 11 -1 23 -16 35 -19 14 -21 19 -10 30 11 11 17 9 33 -12 24 -30 43 -71 41
-86 -1 -6 7 -19 19 -30 20 -18 21 -18 34 -1 9 13 20 16 39 11 19 -4 28 -2 32
11 8 20 -10 43 -20 26 -10 -15 -49 -14 -43 2 6 17 -12 49 -24 42 -17 -11 -21
24 -5 41 9 8 13 20 10 26 -4 6 -10 5 -16 -3 -5 -9 -6 -5 -2 13 5 23 3 26 -14
21 -11 -2 -23 1 -28 8 -5 9 -2 11 9 6 11 -4 17 -1 17 7 0 14 45 28 55 18 3 -3
5 -16 5 -29 0 -20 4 -23 20 -18 14 4 20 2 20 -9 0 -10 -6 -13 -15 -10 -8 4
-15 1 -15 -5 0 -6 9 -11 21 -11 16 0 19 -4 14 -22 -6 -21 -5 -22 8 -5 8 9 22
17 31 17 9 0 16 5 16 11 0 6 9 9 20 6 11 -3 18 -1 14 4 -3 5 -14 9 -25 9 -22
0 -26 18 -4 26 9 4 28 -8 50 -30 39 -41 41 -41 49 -21 3 8 2 14 -2 13 -19 -5
-53 15 -48 28 3 8 2 12 -3 9 -5 -3 -12 -1 -16 5 -3 5 -1 10 4 10 6 0 11 5 11
11 0 6 -9 8 -20 4 -22 -7 -28 10 -7 19 6 3 2 3 -10 0 -13 -3 -23 -1 -23 5 0 6
6 12 13 12 6 1 17 2 22 4 6 1 18 3 28 3 14 2 17 7 12 22 -8 25 11 26 38 3 19
-17 20 -17 10 2 -6 11 -10 36 -10 55 1 20 -2 43 -6 53 -4 10 -2 17 6 17 8 0 6
4 -3 10 -12 8 -10 10 9 10 18 0 22 -4 18 -19 -6 -25 18 -35 46 -19 12 7 25 11
28 10 4 0 9 8 12 18 3 11 2 20 -3 20 -12 0 -19 39 -9 46 5 3 16 22 24 41 12
29 13 38 3 45 -10 6 -9 8 4 8 9 0 19 6 22 13 4 6 4 2 2 -10 -5 -29 10 -30 20
-1 6 21 7 21 22 -5 18 -29 35 -37 25 -11 -4 11 -1 15 12 12 13 -2 19 4 20 20
1 13 -2 25 -7 28 -5 3 -2 14 7 24 15 16 15 19 -1 34 -12 13 -14 20 -5 29 8 8
11 7 11 -4 0 -8 14 -23 30 -33 17 -9 28 -22 25 -27 -4 -5 -3 -9 0 -9 10 0 35
28 35 39 0 5 8 16 18 23 10 7 22 25 26 41 8 33 23 36 22 5 -1 -13 4 -22 10
-21 61 11 94 10 113 -3 15 -11 26 -12 38 -5 10 6 14 11 9 11 -4 0 2 9 15 20
13 10 19 19 12 20 -6 0 -15 -4 -18 -10 -3 -5 -15 -15 -26 -21 -19 -10 -20 -9
-9 10 13 25 6 41 -17 41 -13 0 -13 3 -3 15 11 13 9 15 -13 15 -14 0 -27 7 -31
15 -4 12 -10 13 -33 3 -15 -7 -33 -19 -39 -28 -9 -11 -15 -12 -26 -2 -8 6 -18
8 -23 4 -4 -4 -1 3 6 16 8 12 21 22 31 22 36 0 44 10 40 48 -3 20 -11 41 -18
45 -8 4 -14 16 -14 25 1 16 1 16 11 0 11 -20 18 -22 39 -8 13 8 10 14 -14 35
-16 13 -33 22 -37 19 -5 -3 -9 0 -9 6 0 7 6 10 14 7 16 -6 30 30 15 39 -5 3
-9 -3 -9 -12 0 -14 -3 -15 -12 -6 -16 16 -29 15 -22 -2 3 -8 0 -17 -7 -22 -8
-5 -10 -3 -4 6 5 8 3 11 -6 8 -24 -8 -15 -54 17 -81 23 -21 25 -26 11 -27 -11
0 -20 -10 -24 -31 -3 -17 -12 -33 -19 -36 -8 -3 -11 -9 -8 -14 3 -5 -4 -9 -15
-9 -12 0 -21 5 -21 10 0 6 6 10 14 10 28 0 25 17 -15 93 -26 51 -38 84 -34 97
10 30 -4 63 -23 55 -17 -6 -32 10 -32 36 0 23 37 31 55 12 8 -8 15 -10 15 -5
0 15 -48 54 -59 47 -18 -10 -48 4 -54 26 -3 11 -15 23 -26 26 -21 5 -30 23
-12 23 5 0 16 3 25 6 11 4 16 1 16 -10 0 -9 5 -16 11 -16 5 0 7 -4 4 -10 -3
-5 -2 -10 4 -10 5 0 18 -3 28 -6 16 -5 16 -4 3 8 -18 16 -20 70 -2 76 6 2 10
8 7 13 -3 4 0 21 7 36 15 30 13 83 -3 83 -6 0 -24 -7 -42 -16 -18 -9 -29 -13
-25 -9 5 5 -6 16 -22 26 -28 17 -35 33 -31 67 1 7 -9 12 -24 12 -14 0 -25 4
-25 9 0 11 25 21 50 21 10 0 22 4 25 10 3 6 -1 7 -9 4 -9 -3 -16 -1 -16 5 0 6
-11 11 -25 11 -16 0 -25 -6 -25 -15 0 -8 -7 -15 -15 -15 -8 0 -15 -4 -15 -10
0 -5 5 -10 10 -10 6 0 10 -4 10 -10 0 -5 -9 -10 -21 -10 -12 0 -19 -5 -16 -12
2 -7 13 -11 23 -10 22 4 18 -1 -15 -18 -21 -11 -23 -10 -18 3 3 9 1 17 -5 19
-8 3 -9 11 -3 24 4 10 7 27 6 36 -1 10 10 23 28 33 30 15 35 50 5 38 -8 -3
-14 1 -14 11 0 9 5 15 11 14 7 -2 13 16 16 41 3 36 2 43 -11 38 -10 -4 -16 1
-18 17 -2 19 -7 22 -23 15z m38 -56 c-7 -2 -19 -2 -25 0 -7 3 -2 5 12 5 14 0
19 -2 13 -5z m-83 -73 c0 -13 -32 -21 -45 -10 -6 5 -16 6 -20 2 -5 -4 -5 -1 0
6 4 8 16 12 26 9 11 -3 19 -1 19 5 0 5 5 6 10 3 6 -3 10 -10 10 -15z m-29 -30
c4 0 6 -7 3 -15 -8 -19 -24 -20 -24 -1 0 8 -3 16 -7 19 -5 2 -2 2 5 0 8 -1 18
-3 23 -3z m175 -140 c23 0 30 -31 9 -46 -13 -10 -15 -17 -8 -26 15 -19 12 -47
-4 -41 -8 3 -12 14 -10 24 3 12 -2 20 -15 25 -15 4 -17 9 -9 17 6 6 11 17 11
25 0 9 -13 6 -42 -12 -24 -15 -42 -33 -42 -41 1 -11 -2 -13 -10 -6 -6 5 -22
11 -36 13 -24 4 -24 5 10 20 19 9 42 19 50 22 26 10 55 30 65 46 8 13 10 13
13 -2 2 -10 10 -18 18 -18z m-201 -30 c-3 -5 -11 -10 -16 -10 -6 0 -7 5 -4 10
3 6 11 10 16 10 6 0 7 -4 4 -10z m-57 -31 c-20 -13 -38 -11 -38 5 0 9 8 12 26
8 19 -3 22 -7 12 -13z m47 -29 c3 -6 -1 -13 -10 -16 -19 -8 -30 0 -20 15 8 14
22 14 30 1z m305 -4 c0 -3 -4 -8 -10 -11 -5 -3 -10 -1 -10 4 0 6 5 11 10 11 6
0 10 -2 10 -4z m-265 -36 c3 -5 1 -10 -4 -10 -6 0 -11 5 -11 10 0 6 2 10 4 10
3 0 8 -4 11 -10z m222 -46 c-9 -9 -28 6 -21 18 4 6 10 6 17 -1 6 -6 8 -13 4
-17z m-207 -45 c0 -6 -4 -7 -10 -4 -5 3 -10 11 -10 16 0 6 5 7 10 4 6 -3 10
-11 10 -16z m-555 -39 c3 -5 1 -10 -4 -10 -6 0 -11 5 -11 10 0 6 2 10 4 10 3
0 8 -4 11 -10z m573 -12 c-2 -6 -10 -14 -16 -16 -7 -2 -10 2 -6 12 7 18 28 22
22 4z m24 -23 c0 -5 -5 -11 -11 -13 -6 -2 -11 4 -11 13 0 9 5 15 11 13 6 -2
11 -8 11 -13z m-972 -10 c20 -24 6 -28 -15 -5 -10 11 -13 20 -8 20 6 0 16 -7
23 -15z m770 -17 c0 -6 -6 -5 -15 2 -8 7 -15 14 -15 16 0 2 7 1 15 -2 8 -4 15
-11 15 -16z m-33 -40 c-7 -4 -15 -1 -19 10 -11 29 -9 32 12 15 14 -13 16 -19
7 -25z m429 1 c3 -6 -1 -18 -10 -27 -15 -15 -16 -14 -16 11 0 27 13 36 26 16z
m-1886 -41 c0 -6 9 -8 20 -5 18 5 20 0 20 -45 0 -48 0 -49 -22 -34 -15 11 -26
12 -40 5 -12 -6 -18 -6 -18 1 0 5 4 10 9 10 5 0 7 20 5 45 -4 37 -2 43 11 39
8 -4 15 -11 15 -16z m865 -18 c15 -17 16 -22 4 -37 -11 -15 -11 -16 1 -5 17
14 50 16 50 2 0 -5 -11 -10 -25 -10 -17 0 -25 -6 -26 -17 0 -14 -2 -15 -6 -3
-3 8 -12 19 -20 23 -7 5 -11 12 -8 17 3 5 1 11 -4 15 -11 6 -4 35 9 35 4 0 15
-9 25 -20z m-943 -38 c-27 -4 -37 2 -27 17 4 8 13 7 28 -1 l22 -13 -23 -3z
m1211 -6 c4 -10 1 -13 -9 -9 -7 3 -14 9 -14 14 0 14 17 10 23 -5z m763 -27 c3
-6 -5 -3 -20 6 -14 10 -26 19 -26 22 0 7 39 -17 46 -28z m84 27 c0 -11 -19
-15 -25 -6 -3 5 1 10 9 10 9 0 16 -2 16 -4z m-1293 -13 c-4 -3 -2 -12 4 -19 6
-8 6 -14 0 -18 -5 -4 -13 -2 -16 4 -8 12 1 40 11 40 4 0 4 -3 1 -7z m-2224
-19 c3 -3 3 -13 0 -21 -5 -12 -7 -12 -14 -1 -15 23 -4 40 14 22z m2262 -14 c3
-5 1 -10 -4 -10 -6 0 -11 5 -11 10 0 6 2 10 4 10 3 0 8 -4 11 -10z m1033 -29
c-14 -5 -31 15 -23 29 5 8 11 6 20 -7 9 -11 10 -19 3 -22z m192 29 c0 -5 -2
-10 -4 -10 -3 0 -8 5 -11 10 -3 6 -1 10 4 10 6 0 11 -4 11 -10z m-2624 -46
c-6 -15 -36 -20 -36 -5 0 5 7 11 15 15 9 3 12 12 9 23 -5 17 -5 17 6 0 6 -10
9 -25 6 -33z m2199 26 c14 -16 15 -20 4 -20 -16 0 -39 19 -39 32 0 14 16 9 35
-12z m-2955 -6 c0 -11 6 -14 20 -9 24 7 26 -7 5 -29 -8 -8 -15 -19 -15 -25 0
-6 -9 -11 -20 -11 -11 0 -22 0 -25 0 -3 0 -5 3 -6 8 0 4 -5 12 -9 17 -12 15 5
39 23 32 11 -4 13 0 10 14 -3 10 0 19 6 19 6 0 11 -7 11 -16z m1255 6 c3 -5 3
-15 -1 -21 -6 -11 -23 6 -24 24 0 10 18 9 25 -3z m155 0 c0 -5 -5 -10 -11 -10
-5 0 -7 5 -4 10 3 6 8 10 11 10 2 0 4 -4 4 -10z m-600 -20 c0 -5 -5 -10 -11
-10 -5 0 -7 5 -4 10 3 6 8 10 11 10 2 0 4 -4 4 -10z m754 -5 c-4 -8 -8 -15
-10 -15 -2 0 -4 7 -4 15 0 8 4 15 10 15 5 0 7 -7 4 -15z m524 -3 c-10 -2 -18
-11 -18 -20 0 -14 -2 -14 -9 -3 -12 18 9 41 29 33 12 -5 12 -7 -2 -10z m267 8
c3 -5 1 -10 -4 -10 -6 0 -11 5 -11 10 0 6 2 10 4 10 3 0 8 -4 11 -10z m-2208
-42 c-17 -11 -28 1 -14 16 8 10 14 11 19 3 4 -6 2 -15 -5 -19z m2149 4 c-8 -9
-19 -13 -22 -9 -10 9 16 38 28 31 6 -4 4 -13 -6 -22z m502 8 c-7 -10 -14 -17
-17 -15 -4 4 18 35 25 35 2 0 -1 -9 -8 -20z m-294 -16 c3 -8 2 -12 -4 -9 -6 3
-10 10 -10 16 0 14 7 11 14 -7z m176 6 c0 -5 -4 -10 -9 -10 -6 0 -13 5 -16 10
-3 6 1 10 9 10 9 0 16 -4 16 -10z m278 -23 c5 -37 -15 -34 -20 3 -3 19 -1 29
6 27 6 -2 12 -16 14 -30z m416 -8 c-3 -5 -9 -7 -14 -4 -5 3 -11 1 -15 -5 -3
-5 -1 -10 4 -10 6 0 11 -4 11 -10 0 -15 -17 -12 -23 3 -3 7 -3 26 0 41 5 25 6
26 24 10 10 -9 16 -21 13 -25z m-3259 21 c3 -5 2 -10 -4 -10 -5 0 -13 5 -16
10 -3 6 -2 10 4 10 5 0 13 -4 16 -10z m689 -6 c6 -15 4 -15 -11 -3 -10 7 -20
15 -22 16 -2 2 3 3 11 3 9 0 19 -7 22 -16z m-34 -15 c0 -4 -7 -6 -15 -3 -8 4
-15 10 -15 15 0 4 7 6 15 3 8 -4 15 -10 15 -15z m274 5 c4 -10 1 -14 -6 -12
-15 5 -23 28 -10 28 5 0 13 -7 16 -16z m1331 5 c4 -6 -1 -16 -11 -24 -14 -10
-21 -10 -26 -2 -4 7 -3 14 2 15 6 2 8 8 4 13 -3 5 2 9 10 9 8 0 18 -5 21 -11z
m-2175 -9 c0 -5 -5 -10 -11 -10 -5 0 -7 5 -4 10 3 6 8 10 11 10 2 0 4 -4 4
-10z m2981 -7 c13 -16 12 -17 -3 -5 -9 8 -23 10 -29 6 -8 -4 -9 -3 -5 4 10 17
21 15 37 -5z m-1373 -16 c9 3 0 -11 -20 -31 -20 -21 -41 -35 -47 -31 -16 9
-14 18 17 54 20 25 28 29 30 18 2 -10 9 -14 20 -10z m417 3 c3 -11 2 -27 -3
-36 -8 -15 -11 -14 -27 9 -10 15 -22 24 -31 20 -8 -3 -14 -2 -14 1 0 7 38 24
57 25 6 1 14 -8 18 -19z m440 10 c3 -5 2 -10 -4 -10 -5 0 -13 5 -16 10 -3 6
-2 10 4 10 5 0 13 -4 16 -10z m187 -12 c-6 -6 -15 -8 -19 -4 -4 4 -1 11 7 16
19 12 27 3 12 -12z m-2123 -15 c9 -19 9 -23 -2 -23 -9 0 -14 10 -14 25 0 29 0
29 16 -2z m451 17 c0 -5 -7 -10 -15 -10 -8 0 -15 5 -15 10 0 6 7 10 15 10 8 0
15 -4 15 -10z m2134 -2 c-3 -4 -14 -8 -24 -8 -10 0 -21 4 -24 8 -3 5 8 9 24 9
16 0 27 -4 24 -9z m106 8 c0 -3 -4 -8 -10 -11 -5 -3 -10 -1 -10 4 0 6 5 11 10
11 6 0 10 -2 10 -4z m-3424 -20 c10 -8 16 -17 12 -21 -8 -8 -48 13 -48 25 0
14 13 12 36 -4z m1062 -31 c17 -38 14 -43 -8 -15 -21 27 -25 40 -12 40 5 0 14
-11 20 -25z m442 9 c0 -8 -4 -12 -10 -9 -5 3 -10 10 -10 16 0 5 5 9 10 9 6 0
10 -7 10 -16z m610 8 c0 -13 -12 -22 -22 -16 -10 6 -1 24 13 24 5 0 9 -4 9 -8z
m590 1 c0 -5 -4 -14 -9 -22 -8 -12 -12 -12 -25 -2 -9 7 -13 17 -10 22 6 11 44
12 44 2z m618 -13 c-15 -23 -33 -31 -53 -24 -21 9 -19 26 3 20 10 -4 27 1 38
9 25 19 26 19 12 -5z m185 7 c3 -8 -4 -14 -20 -15 -22 -2 -24 0 -13 13 15 18
26 19 33 2z m-2606 -34 c28 -13 27 -13 -14 -8 -23 3 -54 10 -70 17 l-28 11 35
6 c19 4 38 2 42 -3 3 -5 19 -15 35 -23z m1139 10 c-7 -7 -26 7 -26 19 0 6 6 6
15 -2 9 -7 13 -15 11 -17z m270 18 c-3 -5 2 -12 11 -15 9 -4 20 -1 24 5 4 6
12 8 18 5 6 -4 11 -2 11 4 0 6 10 10 22 8 17 -2 23 -10 24 -35 1 -25 -2 -30
-15 -25 -9 3 -19 10 -22 15 -9 13 -49 -1 -49 -17 0 -8 -7 -20 -16 -27 -14 -11
-18 -10 -30 6 -19 25 -18 32 6 40 11 4 17 11 14 17 -4 6 -10 5 -15 -3 -5 -8
-9 -9 -9 -3 0 5 5 15 12 22 14 14 22 16 14 3z m192 -7 c14 -15 14 -16 -3 -13
-10 2 -20 10 -23 17 -5 17 6 15 26 -4z m1132 6 c12 -7 12 -12 3 -21 -9 -9 -16
-9 -28 1 -29 24 -9 42 25 20z m-870 -24 c0 -7 -7 -19 -15 -26 -12 -10 -15 -9
-15 7 0 11 3 23 7 26 11 12 23 8 23 -7z m38 -4 c6 -18 -15 -14 -22 4 -4 10 -1
14 6 12 6 -2 14 -10 16 -16z m122 -32 c0 -9 5 -21 12 -28 15 -15 58 -16 58 -1
0 6 6 9 14 6 8 -3 16 -2 18 3 2 4 14 10 28 12 20 2 26 -3 34 -30 11 -39 2 -51
-26 -33 -18 11 -23 11 -32 -5 -11 -19 -13 -25 -15 -55 0 -9 -11 -20 -23 -24
-19 -6 -20 -8 -6 -12 10 -2 15 -10 11 -19 -5 -13 7 -18 35 -15 6 1 12 -3 12
-9 0 -7 8 -9 19 -5 28 8 34 -9 11 -30 -19 -17 -28 -74 -14 -88 10 -10 32 17
27 33 -2 8 2 4 11 -10 14 -24 14 -25 -22 -37 -28 -9 -31 -12 -14 -12 22 -1 22
-2 7 -18 -14 -13 -18 -14 -25 -3 -7 11 -12 11 -23 2 -8 -7 -22 -10 -31 -6 -9
3 -23 1 -31 -6 -8 -6 -23 -9 -34 -5 -12 4 -23 0 -28 -10 -8 -14 -12 -13 -36 5
-29 23 -57 19 -37 -5 8 -10 8 -15 0 -20 -6 -4 -14 -4 -17 -1 -13 13 -5 67 12
86 10 11 13 20 7 20 -7 0 -12 -4 -12 -10 0 -15 -16 -12 -34 6 -18 17 -21 44
-6 44 6 0 10 -6 10 -14 0 -25 18 -28 31 -5 9 17 8 23 -2 30 -7 4 -10 11 -6 15
4 4 20 -2 36 -14 l29 -21 22 45 c18 36 20 47 9 60 -8 9 -15 11 -19 5 -3 -7
-24 6 -48 29 -44 43 -52 60 -27 60 8 0 15 8 15 18 0 14 2 14 9 3 5 -8 16 -11
24 -8 8 3 25 -1 37 -10 20 -14 24 -14 43 6 l22 22 -45 -3 c-40 -3 -45 -1 -46
20 -1 12 3 22 8 22 5 0 9 12 8 28 -1 15 -2 30 -1 34 2 14 41 -26 41 -42z m750
41 c0 -12 -20 -25 -27 -18 -7 7 6 27 18 27 5 0 9 -4 9 -9z m-3490 -32 c0 -5
-9 -9 -20 -9 -22 0 -23 1 -14 24 5 13 9 14 20 5 8 -6 14 -15 14 -20z m270 21
c0 -5 -2 -10 -4 -10 -3 0 -8 5 -11 10 -3 6 -1 10 4 10 6 0 11 -4 11 -10z
m1646 -27 c-11 -11 -19 6 -11 24 8 17 8 17 12 0 3 -10 2 -21 -1 -24z m554 25
c-1 -7 -6 -23 -13 -36 -12 -21 -14 -21 -32 -7 -19 15 -19 16 5 9 20 -5 22 -4
13 6 -6 7 -9 19 -6 26 6 17 33 18 33 2z m-850 -8 c0 -5 -2 -10 -4 -10 -3 0 -8
5 -11 10 -3 6 -1 10 4 10 6 0 11 -4 11 -10z m1536 -15 c-2 -11 -11 -22 -21
-23 -11 -3 -15 0 -10 7 4 7 2 18 -5 25 -8 11 -6 14 14 12 19 -1 24 -6 22 -21z
m134 10 c6 -8 9 -19 5 -25 -7 -11 -34 15 -35 33 0 12 17 8 30 -8z m-3207 -5
c9 0 17 -5 17 -10 0 -11 -45 -3 -70 12 -11 7 -8 8 10 4 14 -3 33 -6 43 -6z
m417 0 c0 -5 -5 -10 -11 -10 -5 0 -7 5 -4 10 3 6 8 10 11 10 2 0 4 -4 4 -10z
m1090 -11 c0 -6 -4 -7 -10 -4 -5 3 -10 11 -10 16 0 6 5 7 10 4 6 -3 10 -11 10
-16z m-150 -11 c0 -19 -2 -20 -10 -8 -13 19 -13 30 0 30 6 0 10 -10 10 -22z
m110 7 c0 -8 -6 -15 -14 -15 -20 0 -29 17 -14 23 22 9 28 7 28 -8z m-983 -31
c-10 -10 -16 -10 -31 0 -35 23 -31 36 8 24 27 -9 32 -14 23 -24z m1513 26 c0
-5 -5 -10 -11 -10 -5 0 -7 5 -4 10 3 6 8 10 11 10 2 0 4 -4 4 -10z m1025 0
c-3 -5 -11 -10 -16 -10 -6 0 -7 5 -4 10 3 6 11 10 16 10 6 0 7 -4 4 -10z
m-2250 -20 c10 -11 15 -20 11 -20 -14 0 -46 21 -46 30 0 16 16 11 35 -10z
m1660 12 c6 -4 16 -19 24 -34 8 -16 19 -28 24 -28 5 0 4 -6 -2 -14 -8 -10 -9
-16 -1 -21 15 -9 12 -25 -4 -25 -9 0 -13 -10 -12 -29 2 -24 -1 -27 -19 -23
-29 7 -45 22 -39 36 4 10 -2 12 -20 9 -29 -6 -36 14 -10 24 8 3 20 17 25 30 7
20 12 22 29 13 26 -14 26 0 0 33 -27 34 -24 51 5 29z m745 -2 c0 -5 -5 -10
-11 -10 -5 0 -7 5 -4 10 3 6 8 10 11 10 2 0 4 -4 4 -10z m-2070 -20 c0 -5 -4
-10 -10 -10 -5 0 -10 5 -10 10 0 6 5 10 10 10 6 0 10 -4 10 -10z m364 -5 c-4
-8 -11 -15 -16 -15 -6 0 -5 6 2 15 7 8 14 15 16 15 2 0 1 -7 -2 -15z m166 11
c0 -3 -4 -8 -10 -11 -5 -3 -10 -1 -10 4 0 6 5 11 10 11 6 0 10 -2 10 -4z
m1385 -6 c3 -5 1 -10 -4 -10 -6 0 -11 5 -11 10 0 6 2 10 4 10 3 0 8 -4 11 -10z
m-1860 -10 c3 -5 1 -10 -4 -10 -6 0 -11 5 -11 10 0 6 2 10 4 10 3 0 8 -4 11
-10z m1225 0 c0 -5 -10 -10 -22 -10 -19 0 -20 2 -8 10 19 13 30 13 30 0z
m-2292 -25 c-3 -3 -9 2 -12 12 -6 14 -5 15 5 6 7 -7 10 -15 7 -18z m72 9 c0
-2 -7 -4 -15 -4 -8 0 -15 4 -15 10 0 5 7 7 15 4 8 -4 15 -8 15 -10z m595 -21
c23 -54 13 -61 -13 -9 -12 25 -17 46 -12 46 5 0 17 -17 25 -37z m1348 11 c4
-24 4 -24 -16 -7 -11 10 -18 13 -14 7 3 -6 0 -11 -8 -11 -17 0 -17 0 -10 19
10 24 43 19 48 -8z m87 16 c0 -5 -5 -10 -11 -10 -5 0 -7 5 -4 10 3 6 8 10 11
10 2 0 4 -4 4 -10z m844 -12 c-5 -7 -9 -16 -10 -20 -1 -5 -2 -11 -3 -15 -1 -5
-5 -2 -10 6 -6 8 -3 19 8 31 18 19 27 18 15 -2z m-2978 -3 c-3 -8 -1 -15 5
-15 6 0 7 -5 4 -11 -5 -6 -12 -4 -20 8 -14 19 -11 33 7 33 5 0 8 -7 4 -15z
m1664 5 c0 -5 -4 -10 -10 -10 -5 0 -10 5 -10 10 0 6 5 10 10 10 6 0 10 -4 10
-10z m566 -15 c-6 -23 -4 -25 18 -19 29 7 43 -11 19 -25 -10 -6 -13 -11 -6
-11 15 0 14 -57 -3 -70 -17 -15 12 -74 32 -66 21 8 64 -11 64 -29 0 -9 -6 -23
-14 -31 -8 -7 -16 -18 -18 -24 -2 -6 -11 -8 -21 -4 -20 7 -18 25 3 32 7 3 10
0 6 -7 -4 -6 -5 -11 -2 -11 35 0 -33 71 -72 75 -43 4 -73 25 -70 48 2 12 8 22
15 22 7 0 18 6 25 13 6 6 8 12 4 12 -5 0 -1 12 9 26 16 25 16 27 -4 45 -29 27
-26 49 7 49 10 0 12 -7 8 -25z m-1696 5 c0 -5 -5 -10 -11 -10 -5 0 -7 5 -4 10
3 6 8 10 11 10 2 0 4 -4 4 -10z m510 -5 c0 -8 -4 -15 -10 -15 -5 0 -10 7 -10
15 0 8 5 15 10 15 6 0 10 -7 10 -15z m517 -7 c-3 -8 -6 -5 -6 6 -1 11 2 17 5
13 3 -3 4 -12 1 -19z m533 7 c16 -19 1 -19 -24 0 -16 12 -17 15 -4 15 8 0 21
-7 28 -15z m-1860 -16 c0 -6 -4 -7 -10 -4 -5 3 -10 11 -10 16 0 6 5 7 10 4 6
-3 10 -11 10 -16z m1022 -24 c-7 -13 -11 -14 -17 -5 -4 7 -2 16 6 21 10 6 11
9 2 9 -7 0 -13 5 -13 12 0 8 6 7 16 -4 12 -11 13 -21 6 -33z m528 36 c0 -6
-12 -16 -27 -23 -16 -7 -36 -29 -45 -48 -17 -33 -23 -29 -18 14 2 23 27 49 39
42 5 -3 14 1 21 9 14 17 30 20 30 6z m-95 -34 c-9 -21 -35 -30 -35 -12 0 8 5
15 10 15 6 0 9 3 9 8 -3 18 2 25 11 16 6 -6 8 -18 5 -27z m498 9 c3 -8 0 -16
-7 -19 -6 -3 -13 4 -13 14 -2 22 12 25 20 5z m-839 -31 c10 -15 12 -26 6 -30
-6 -3 -10 1 -10 9 0 9 -3 16 -8 16 -4 0 -13 9 -19 20 -19 29 11 15 31 -15z
m-458 0 c4 -14 4 -29 0 -32 -9 -9 -14 -1 -20 30 -6 34 11 36 20 2z m-1271 5
c3 -5 1 -10 -4 -10 -6 0 -11 5 -11 10 0 6 2 10 4 10 3 0 8 -4 11 -10z m1806
-7 c13 -16 12 -17 -3 -4 -10 7 -18 15 -18 17 0 8 8 3 21 -13z m-751 -13 c28
-22 24 -25 -14 -10 -14 5 -26 14 -26 20 0 15 12 12 40 -10z m830 10 c0 -5 -2
-10 -4 -10 -3 0 -8 5 -11 10 -3 6 -1 10 4 10 6 0 11 -4 11 -10z m-914 -37
c-10 -10 -19 5 -10 18 6 11 8 11 12 0 2 -7 1 -15 -2 -18z m-709 11 c13 -4 21
-10 18 -14 -6 -9 -53 -1 -61 11 -6 10 11 11 43 3z m1656 0 c7 -8 -16 -33 -25
-28 -9 6 1 34 11 34 4 0 10 -3 14 -6z m-1578 -24 c3 -5 -3 -10 -14 -10 -11 0
-23 5 -26 10 -3 6 3 10 14 10 11 0 23 -4 26 -10z m595 -6 c13 -13 3 -64 -13
-64 -17 0 -57 42 -57 61 0 12 8 16 30 15 16 -1 34 -6 40 -12z m670 -5 c0 -6
-4 -7 -10 -4 -5 3 -10 11 -10 16 0 6 5 7 10 4 6 -3 10 -11 10 -16z m140 6 c0
-8 -4 -15 -10 -15 -5 0 -10 7 -10 15 0 8 5 15 10 15 6 0 10 -7 10 -15z m290
11 c0 -2 -7 -7 -16 -10 -8 -3 -12 -2 -9 4 6 10 25 14 25 6z m-650 -12 c0 -3
-7 -12 -15 -21 -20 -19 -32 -10 -14 11 14 15 29 21 29 10z m1367 0 c-3 -3 -12
-4 -19 -1 -8 3 -5 6 6 6 11 1 17 -2 13 -5z m433 -24 c-13 -11 -25 -20 -28 -20
-3 0 3 9 13 20 10 11 23 20 28 20 6 0 0 -9 -13 -20z m-3365 0 c17 -7 15 -9
-12 -9 -17 -1 -35 4 -38 9 -7 12 22 12 50 0z m2015 0 c0 -5 -2 -10 -4 -10 -3
0 -8 5 -11 10 -3 6 -1 10 4 10 6 0 11 -4 11 -10z m936 -18 c-13 -15 -12 -20 5
-41 33 -41 20 -48 -17 -8 -24 25 -34 43 -29 55 5 13 8 14 14 3 6 -10 10 -9 15
4 3 9 11 13 17 10 7 -5 5 -12 -5 -23z m124 18 c0 -5 -7 -10 -15 -10 -8 0 -15
5 -15 10 0 6 7 10 15 10 8 0 15 -4 15 -10z m-2246 -16 c3 -9 6 -20 6 -25 0
-12 -31 -11 -49 0 -12 8 -12 12 -2 25 17 20 37 20 45 0z m976 -10 c0 -2 -9 -8
-19 -13 -14 -8 -20 -7 -24 4 -4 10 -1 12 10 8 11 -4 14 -2 9 5 -5 8 -2 10 8 6
9 -3 16 -8 16 -10z m48 -9 c-3 -3 -9 2 -12 12 -6 14 -5 15 5 6 7 -7 10 -15 7
-18z m-282 -32 c-11 -11 -19 6 -11 24 8 17 8 17 12 0 3 -10 2 -21 -1 -24z
m178 5 c-3 -4 7 -6 20 -5 14 1 25 -2 26 -8 1 -14 -37 -16 -92 -4 -62 14 -62
29 1 26 27 -1 47 -5 45 -9z m-140 -47 c-15 -14 -16 -14 -6 0 6 9 9 19 6 22 -3
3 -2 12 2 19 7 10 9 9 12 -6 2 -10 -4 -26 -14 -35z m326 28 c0 -5 -4 -9 -10
-9 -5 0 -10 7 -10 16 0 8 5 12 10 9 6 -3 10 -10 10 -16z m-1430 7 c0 -3 -4 -8
-10 -11 -5 -3 -10 -1 -10 4 0 6 5 11 10 11 6 0 10 -2 10 -4z m1730 -6 c0 -5
-5 -10 -11 -10 -5 0 -7 5 -4 10 3 6 8 10 11 10 2 0 4 -4 4 -10z m545 0 c3 -5
2 -10 -4 -10 -5 0 -13 5 -16 10 -3 6 -2 10 4 10 5 0 13 -4 16 -10z m-1704 -54
c-6 -7 -8 -16 -4 -20 10 -10 -29 5 -44 17 -14 10 -18 47 -5 47 4 0 14 -6 21
-12 7 -7 12 -8 11 -3 -5 25 1 28 16 7 11 -17 13 -26 5 -36z m604 44 c3 -5 -1
-10 -9 -10 -9 0 -16 5 -16 10 0 6 4 10 9 10 6 0 13 -4 16 -10z m-877 -27 c-2
-16 -8 -27 -14 -26 -15 3 -10 -63 6 -82 23 -28 3 -27 -23 0 -16 18 -27 23 -31
16 -5 -8 -12 -7 -22 4 -14 13 -13 18 6 42 28 36 63 71 73 72 5 1 7 -11 5 -26z
m1562 7 c0 -5 -7 -10 -16 -10 -8 0 -12 5 -9 10 3 6 10 10 16 10 5 0 9 -4 9
-10z m-620 -10 c0 -5 -2 -10 -4 -10 -3 0 -8 5 -11 10 -3 6 -1 10 4 10 6 0 11
-4 11 -10z m325 -30 c3 -6 1 -10 -6 -10 -9 0 -9 -3 1 -14 10 -13 8 -13 -12 -4
-14 7 -23 20 -23 34 0 18 3 20 17 13 9 -5 20 -14 23 -19z m-135 10 c0 -5 -2
-10 -4 -10 -3 0 -8 5 -11 10 -3 6 -1 10 4 10 6 0 11 -4 11 -10z m-778 -22 c-7
-7 -12 -8 -12 -2 0 14 12 26 19 19 2 -3 -1 -11 -7 -17z m1003 -8 c10 -11 16
-23 12 -26 -9 -9 -47 16 -47 31 0 21 14 19 35 -5z m765 10 c0 -5 -5 -10 -11
-10 -5 0 -7 5 -4 10 3 6 8 10 11 10 2 0 4 -4 4 -10z m-40 -16 c0 -8 -5 -12
-10 -9 -6 4 -8 11 -5 16 9 14 15 11 15 -7z m335 -4 c-8 -13 21 -20 34 -7 8 8
11 8 11 -1 0 -7 7 -12 15 -12 8 0 15 -5 15 -11 0 -6 -9 -8 -20 -4 -11 3 -33 7
-50 7 -17 1 -27 5 -23 11 4 6 0 8 -10 4 -21 -8 -21 -3 -1 17 15 16 39 13 29
-4z m-205 7 c0 -2 -9 -12 -20 -22 -24 -21 -27 -14 -4 9 15 15 24 20 24 13z
m-2176 -22 c-4 -8 -11 -12 -16 -9 -6 4 -5 10 3 15 19 12 19 11 13 -6z m34 -49
c-12 -17 -22 -32 -23 -34 -1 -1 -10 1 -20 4 -16 6 -16 8 -1 16 9 5 14 14 10
19 -9 16 15 37 36 32 19 -5 19 -6 -2 -37z m78 19 c-3 -8 -1 -15 4 -15 6 0 10
-4 10 -10 0 -10 -35 -9 -46 2 -7 8 16 37 30 38 4 0 6 -7 2 -15z m2061 -1 c-3
-3 -12 -4 -19 -1 -8 3 -5 6 6 6 11 1 17 -2 13 -5z m223 -15 c0 -5 -4 -9 -10
-9 -5 0 -10 7 -10 16 0 8 5 12 10 9 6 -3 10 -10 10 -16z m-2485 -6 c-4 -10
-12 -37 -17 -60 -12 -52 -26 -58 -59 -22 -15 16 -21 29 -15 29 7 0 27 16 46
35 37 38 57 46 45 18z m2205 -4 c0 -5 -7 -9 -15 -9 -15 0 -20 12 -9 23 8 8 24
-1 24 -14z m245 11 c3 -5 1 -10 -4 -10 -6 0 -11 5 -11 10 0 6 2 10 4 10 3 0 8
-4 11 -10z m-1895 -15 c0 -8 -7 -15 -15 -15 -16 0 -20 12 -8 23 11 12 23 8 23
-8z m283 1 c4 -10 1 -13 -9 -9 -15 6 -19 23 -5 23 5 0 11 -7 14 -14z m1307
-17 c0 -14 -17 -10 -23 5 -4 10 -1 13 9 9 7 -3 14 -9 14 -14z m-2303 -11 c2
-22 -13 -48 -27 -48 -5 0 -3 16 3 35 12 40 22 45 24 13z m372 -22 c0 -6 -3 -5
-6 2 -2 6 -11 12 -19 12 -15 0 -19 12 -7 24 8 8 33 -22 32 -38z m2247 29 c-11
-8 -24 -15 -30 -15 -5 0 -1 7 10 15 10 8 24 14 29 14 6 0 1 -6 -9 -14z m-2306
-5 c18 -12 2 -12 -25 0 -13 6 -15 9 -5 9 8 0 22 -4 30 -9z m630 -11 c0 -5 -4
-9 -10 -9 -5 0 -10 7 -10 16 0 8 5 12 10 9 6 -3 10 -10 10 -16z m1521 -36 c27
-31 30 -39 16 -41 -18 -4 -59 32 -70 61 -12 30 19 19 54 -20z m-2631 7 c0 -5
-2 -10 -4 -10 -3 0 -8 5 -11 10 -3 6 -1 10 4 10 6 0 11 -4 11 -10z m2805 0
c-3 -5 -1 -10 5 -10 6 0 8 -4 5 -10 -10 -17 -25 -11 -25 10 0 11 5 20 11 20 5
0 7 -4 4 -10z m-2700 -21 c4 7 11 7 19 -2 8 -6 12 -16 9 -21 -3 -4 -9 -2 -14
5 -8 14 -14 5 -21 -33 -2 -12 -7 -15 -17 -8 -12 7 -12 11 -2 24 9 11 10 16 2
16 -6 0 -11 7 -11 16 0 13 3 14 14 5 10 -8 16 -9 21 -2z m-40 -28 c0 -21 -17
-23 -43 -3 l-23 18 33 -1 c22 0 33 -5 33 -14z m653 -25 c3 -12 -1 -17 -10 -14
-7 3 -15 13 -16 22 -3 12 1 17 10 14 7 -3 15 -13 16 -22z m-704 -16 c7 -7 1
-10 -16 -10 -34 0 -58 9 -58 22 0 12 60 2 74 -12z m2529 -52 c6 -4 8 -10 4
-15 -5 -4 -17 3 -27 17 -14 18 -15 27 -7 32 7 5 13 1 16 -10 2 -9 8 -20 14
-24z m-763 -10 c0 -16 -3 -19 -11 -11 -6 6 -8 16 -5 22 11 17 16 13 16 -11z
m926 10 c4 -6 3 -8 -4 -4 -5 3 -13 0 -15 -6 -3 -8 -6 -6 -6 5 -1 19 14 23 25
5z m-111 -38 c3 -5 -1 -10 -10 -10 -9 0 -13 5 -10 10 3 6 8 10 10 10 2 0 7 -4
10 -10z m-2305 -20 c0 -5 -2 -10 -4 -10 -3 0 -8 5 -11 10 -3 6 -1 10 4 10 6 0
11 -4 11 -10z m2250 -30 c0 -5 -5 -10 -11 -10 -5 0 -7 5 -4 10 3 6 8 10 11 10
2 0 4 -4 4 -10z m230 -55 c0 -8 6 -16 13 -16 6 -1 -1 -4 -18 -8 -27 -6 -30
-10 -27 -43 3 -37 -11 -58 -24 -37 -3 6 0 15 7 20 12 7 12 9 0 9 -8 0 -11 6
-7 16 6 16 -15 44 -33 44 -6 0 -11 -5 -11 -11 0 -5 -4 -7 -10 -4 -5 3 -10 13
-10 21 0 11 9 13 40 9 21 -2 42 0 45 5 10 15 35 12 35 -5z m-170 -46 c0 -5 -4
-9 -10 -9 -5 0 -10 7 -10 16 0 8 5 12 10 9 6 -3 10 -10 10 -16z m30 11 c0 -5
-2 -10 -4 -10 -3 0 -8 5 -11 10 -3 6 -1 10 4 10 6 0 11 -4 11 -10z m-90 -71
c0 -5 -7 -9 -15 -9 -8 0 -15 -4 -15 -10 0 -5 -5 -10 -11 -10 -8 0 -8 4 1 15 6
8 9 18 6 24 -3 5 3 7 14 4 11 -3 20 -9 20 -14z m35 -8 c3 -5 1 -12 -5 -16 -5
-3 -10 1 -10 9 0 18 6 21 15 7z m214 -22 c-25 -16 -32 -9 -13 12 12 13 20 16
22 9 3 -7 -2 -16 -9 -21z m-309 1 c0 -5 -4 -10 -10 -10 -5 0 -10 5 -10 10 0 6
5 10 10 10 6 0 10 -4 10 -10z m-1050 -30 c0 -5 -4 -10 -10 -10 -5 0 -10 5 -10
10 0 6 5 10 10 10 6 0 10 -4 10 -10z m40 -20 c0 -5 -9 -10 -21 -10 -11 0 -17
5 -14 10 3 6 13 10 21 10 8 0 14 -4 14 -10z m-35 -30 c3 -5 1 -10 -4 -10 -6 0
-11 5 -11 10 0 6 2 10 4 10 3 0 8 -4 11 -10z m1541 -14 c18 -19 18 -26 -1 -26
-8 0 -15 5 -15 11 0 7 -10 9 -26 5 -22 -6 -24 -5 -12 8 17 19 36 20 54 2z
m-266 -5 c0 -13 -48 -20 -53 -7 -3 7 7 13 24 14 16 1 29 -2 29 -7z m-114 -46
c7 -18 35 -20 51 -4 9 9 10 6 6 -10 -4 -16 -11 -20 -24 -16 -22 7 -26 -10 -4
-19 9 -3 12 -12 8 -22 -5 -14 -9 -12 -22 10 -10 16 -22 24 -36 22 -31 -5 -47
11 -32 35 14 23 45 25 53 4z m-1261 -5 c3 -5 -1 -10 -9 -10 -9 0 -16 5 -16 10
0 6 4 10 9 10 6 0 13 -4 16 -10z m891 -45 c11 -8 14 -15 7 -15 -7 0 -13 -7
-13 -16 0 -11 -5 -14 -16 -10 -9 3 -18 6 -20 6 -2 0 -4 11 -4 25 0 28 17 32
46 10z m638 -4 c3 -5 -1 -11 -9 -14 -9 -4 -12 -1 -8 9 6 16 10 17 17 5z m-704
-11 c0 -5 -4 -10 -10 -10 -5 0 -10 5 -10 10 0 6 5 10 10 10 6 0 10 -4 10 -10z
m665 -10 c3 -5 2 -10 -4 -10 -5 0 -13 5 -16 10 -3 6 -2 10 4 10 5 0 13 -4 16
-10z m-1497 -19 c3 -8 -1 -12 -9 -9 -7 2 -15 10 -17 17 -3 8 1 12 9 9 7 -2 15
-10 17 -17z m843 -18 c-16 20 -6 36 11 19 21 -21 19 -49 -4 -55 -27 -7 -26 -8
-38 33 l-9 33 26 -24 c15 -13 21 -16 14 -6z m633 12 c4 -13 2 -14 -14 -5 -23
13 -26 20 -6 20 8 0 16 -7 20 -15z m-2432 -13 c-7 -2 -12 -10 -12 -18 0 -8 -9
-14 -21 -14 -21 0 -21 0 2 24 13 14 28 22 33 18 6 -3 5 -7 -2 -10z m745 -38
c-3 -3 -12 -4 -19 -1 -8 3 -5 6 6 6 11 1 17 -2 13 -5z m957 -16 c31 -21 75
-71 46 -53 -7 4 -16 1 -21 -6 -6 -11 -11 -11 -21 -1 -6 6 -18 12 -26 12 -12 0
-12 -3 -2 -15 9 -10 9 -15 1 -15 -11 0 -15 13 -12 38 1 7 -2 12 -6 11 -19 -3
-33 2 -33 11 0 13 22 39 33 40 4 0 22 -10 41 -22z m502 5 c17 -23 17 -30 1
-36 -8 -3 -14 0 -14 6 0 7 -4 20 -8 30 -4 9 -4 17 0 17 4 0 14 -8 21 -17z
m-1611 -4 c11 -17 -1 -21 -15 -4 -8 9 -8 15 -2 15 6 0 14 -5 17 -11z m1844
-33 c-3 -3 -11 5 -18 17 -13 21 -12 21 5 5 10 -10 16 -20 13 -22z m-1754 14
c3 -5 1 -10 -4 -10 -6 0 -11 5 -11 10 0 6 2 10 4 10 3 0 8 -4 11 -10z m-521
-16 c9 -23 8 -24 -14 -24 -19 0 -27 20 -13 33 11 11 20 8 27 -9z m1671 5 c11
-17 -1 -21 -15 -4 -8 9 -8 15 -2 15 6 0 14 -5 17 -11z m-1279 -25 c-6 -16 17
-48 27 -38 3 4 12 2 19 -2 9 -6 2 -11 -22 -14 -25 -4 -34 -10 -32 -21 1 -9 -4
-19 -13 -23 -8 -3 -15 -1 -15 5 0 6 -8 8 -18 4 -16 -4 -19 0 -20 26 -1 28 0
30 13 13 7 -11 17 -16 21 -12 4 5 -1 17 -11 28 -14 16 -15 20 -4 20 8 0 20 -5
27 -12 8 -8 12 -8 12 -1 0 6 -7 13 -15 17 -24 9 -17 26 11 26 20 0 25 -4 20
-16z m95 -7 c21 -25 24 -37 9 -37 -5 0 -10 7 -10 15 0 23 -32 35 -54 19 -22
-15 -42 -8 -27 10 18 21 61 18 82 -7z m-586 -27 c-3 -10 -1 -22 6 -25 8 -6 7
-10 -2 -16 -38 -24 -75 6 -45 36 8 9 12 23 9 31 -5 14 -3 15 16 5 15 -9 20
-18 16 -31z m782 -2 c-19 -12 -30 -9 -23 7 3 8 1 15 -5 15 -6 0 -8 4 -4 10 3
5 14 2 25 -7 15 -13 16 -19 7 -25z m581 4 c2 -14 -2 -22 -12 -22 -19 0 -28 14
-20 35 9 21 28 14 32 -13z m408 -20 c-1 -25 3 -51 9 -59 9 -13 18 -9 53 24 37
35 41 42 28 53 -9 7 -14 16 -11 20 6 9 94 -15 109 -30 6 -6 14 -6 23 1 7 6 20
8 29 5 30 -12 -10 -36 -61 -36 -53 0 -52 -14 3 -37 31 -13 33 -16 19 -25 -9
-5 -22 -6 -27 -3 -6 3 -19 0 -31 -8 -14 -11 -17 -17 -8 -22 8 -6 7 -10 -5 -17
-22 -12 -28 -7 -30 26 -1 23 -5 26 -39 26 -23 0 -36 -4 -32 -10 8 -13 -1 -13
-25 0 -16 9 -18 6 -14 -19 5 -28 -7 -45 -31 -46 -5 -1 -9 -6 -7 -13 4 -23 -13
-11 -36 24 -25 38 -21 63 6 42 15 -12 16 -11 3 5 -8 9 -12 18 -10 20 2 1 13 7
24 13 25 14 32 52 11 60 -9 3 -16 16 -16 28 0 18 6 22 34 22 33 0 34 0 32 -44z
m484 38 c0 -5 -2 -10 -4 -10 -3 0 -8 5 -11 10 -3 6 -1 10 4 10 6 0 11 -4 11
-10z m-840 -4 c0 -3 -4 -8 -10 -11 -5 -3 -10 -1 -10 4 0 6 5 11 10 11 6 0 10
-2 10 -4z m409 -12 c18 -9 31 -17 29 -19 -8 -8 -57 9 -62 21 -7 18 -6 17 33
-2z m-1163 -13 c-10 -16 -46 -20 -46 -5 0 8 10 14 26 14 14 0 23 -4 20 -9z
m799 -1 c8 -13 -15 -13 -35 0 -12 8 -11 10 7 10 12 0 25 -4 28 -10z m-890 -10
c3 -5 1 -10 -4 -10 -6 0 -11 5 -11 10 0 6 2 10 4 10 3 0 8 -4 11 -10z m1835
-11 c0 -5 9 -9 19 -9 13 0 23 -11 30 -32 l11 -33 -20 24 c-12 14 -20 18 -20
10 0 -8 -11 0 -25 16 -28 35 -31 47 -10 39 8 -4 15 -10 15 -15z m112 -4 c8
-19 8 -28 -2 -40 -7 -8 -17 -12 -22 -9 -6 4 -5 10 3 15 9 5 6 11 -14 20 -29
13 -34 24 -14 32 25 11 38 6 49 -18z m-1252 11 c0 -3 -4 -8 -10 -11 -5 -3 -10
-1 -10 4 0 6 5 11 10 11 6 0 10 -2 10 -4z m290 0 c0 -3 -5 -17 -10 -31 -9 -23
-13 -25 -25 -15 -8 7 -22 9 -31 6 -14 -5 -15 -4 -4 9 7 9 19 14 27 11 8 -3 16
1 19 9 6 13 24 22 24 11z m160 -11 c7 -9 10 -18 7 -22 -8 -7 -37 15 -37 28 0
14 16 11 30 -6z m-1626 -27 c-4 -6 -10 -5 -15 3 -14 22 -10 33 6 19 8 -7 12
-17 9 -22z m602 17 c19 -8 38 -14 42 -14 21 3 32 -3 32 -16 0 -8 -4 -15 -10
-15 -5 0 -10 4 -10 8 0 4 -17 9 -37 11 -21 1 -45 3 -53 4 -16 1 -23 37 -8 37
5 0 25 -7 44 -15z m489 -6 c-10 -15 -25 -10 -19 6 4 8 10 12 15 9 5 -3 7 -10
4 -15z m868 1 c-3 -11 -9 -20 -14 -20 -11 0 -11 3 -3 24 9 23 23 20 17 -4z
m-2102 -1 c11 -5 17 -13 15 -17 -3 -5 -1 -14 5 -22 7 -13 9 -12 9 3 0 19 2 20
24 11 20 -8 21 -24 1 -24 -8 0 -15 -4 -15 -10 0 -14 -27 -12 -33 3 -4 7 -6 6
-6 -4 -1 -16 -48 -36 -59 -24 -3 3 3 5 12 5 10 0 16 6 13 13 -2 6 -11 11 -21
9 -11 -2 -16 4 -16 22 0 40 28 49 34 10 2 -10 8 -20 14 -22 15 -5 16 24 2 33
-11 7 -14 25 -4 25 3 0 14 -5 25 -11z m1419 -8 c0 -24 -18 -37 -32 -23 -8 8
-7 16 2 27 17 21 30 19 30 -4z m263 12 c-19 -7 -16 -23 8 -42 l21 -17 -26 -12
c-23 -10 -26 -9 -26 8 0 11 -7 20 -15 20 -8 0 -15 5 -15 10 0 6 6 10 14 10 8
0 16 7 20 15 3 8 11 15 18 14 10 0 10 -2 1 -6z m63 -21 c-9 -9 -37 8 -31 18 5
8 11 7 21 -1 8 -6 12 -14 10 -17z m-1485 -5 c-13 -13 -26 -3 -16 12 3 6 11 8
17 5 6 -4 6 -10 -1 -17z m118 2 c-11 -7 -12 -12 -2 -27 10 -16 7 -26 -14 -57
-17 -25 -28 -33 -33 -26 -6 11 -27 18 -58 20 -14 1 -12 62 2 73 5 3 21 2 34
-3 21 -8 23 -7 13 5 -13 15 -5 19 47 23 18 1 21 -1 11 -8z m951 -9 c0 -5 -2
-10 -4 -10 -3 0 -8 5 -11 10 -3 6 -1 10 4 10 6 0 11 -4 11 -10z m810 0 c0 -5
-4 -10 -10 -10 -5 0 -10 5 -10 10 0 6 5 10 10 10 6 0 10 -4 10 -10z m127 4
c-3 -3 -12 -4 -19 -1 -8 3 -5 6 6 6 11 1 17 -2 13 -5z m53 -36 c0 -5 -4 -8
-10 -8 -5 0 -10 -6 -10 -12 0 -7 -11 -18 -25 -24 -19 -9 -27 -9 -36 2 -11 13
-9 15 7 13 4 0 13 13 21 30 13 26 17 28 34 18 10 -6 19 -15 19 -19z m-1066 3
c10 -15 -96 -42 -115 -30 -19 12 8 31 36 25 11 -2 29 0 40 4 27 11 33 12 39 1z
m-1034 -10 c0 -5 -7 -11 -15 -15 -9 -3 -15 0 -15 9 0 8 7 15 15 15 8 0 15 -4
15 -9z m575 -1 c-3 -5 -10 -10 -16 -10 -5 0 -9 5 -9 10 0 6 7 10 16 10 8 0 12
-4 9 -10z m321 -18 c-4 -3 -14 2 -24 12 -16 18 -16 18 6 6 13 -6 21 -14 18
-18z m-451 9 c3 -5 2 -12 -3 -15 -5 -3 -9 1 -9 9 0 17 3 19 12 6z m1325 5 c0
-3 -4 -8 -10 -11 -5 -3 -10 -1 -10 4 0 6 5 11 10 11 6 0 10 -2 10 -4z m-1520
-16 c0 -5 -4 -10 -10 -10 -5 0 -10 5 -10 10 0 6 5 10 10 10 6 0 10 -4 10 -10z
m615 -26 c0 -22 -5 -30 -23 -32 -30 -4 -38 21 -15 47 23 27 38 22 38 -15z
m619 15 c-6 -11 -24 -2 -24 11 0 5 7 7 15 4 8 -4 12 -10 9 -15z m-1004 -9 c0
-5 -2 -10 -4 -10 -3 0 -8 5 -11 10 -3 6 -1 10 4 10 6 0 11 -4 11 -10z m105
-11 c-4 -5 -17 -6 -31 -3 -30 8 -32 -11 -3 -27 27 -14 10 -34 -21 -24 -18 6
-20 9 -9 16 11 7 11 9 1 9 -26 0 -7 35 23 41 34 6 48 2 40 -12z m1195 6 c12
-15 6 -35 -11 -35 -5 0 -9 7 -9 15 0 8 -3 14 -7 14 -20 -3 -26 2 -13 11 20 13
26 12 40 -5z m-685 -4 c3 -5 1 -12 -5 -16 -5 -3 -10 1 -10 9 0 18 6 21 15 7z
m1151 -26 c-20 -15 -36 -19 -36 -10 0 5 38 23 50 24 3 0 -4 -6 -14 -14z m-616
-4 c0 -5 -4 -11 -10 -13 -15 -5 1 -48 19 -49 24 -2 24 -2 49 6 35 10 26 -10
-11 -23 -51 -18 -80 -16 -74 7 2 10 0 26 -5 35 -6 10 -5 21 4 31 15 16 28 19
28 6z m489 -22 c-19 -12 -24 -2 -8 17 9 11 14 13 17 4 3 -7 -2 -16 -9 -21z
m-1713 -32 c1 -26 -3 -47 -7 -47 -5 0 -8 3 -8 8 4 22 -3 34 -16 28 -9 -3 -24
3 -35 14 -11 11 -19 20 -17 21 1 0 13 2 26 3 14 2 27 8 29 15 9 28 27 1 28
-42z m1774 43 c0 -5 -5 -10 -11 -10 -5 0 -7 5 -4 10 3 6 8 10 11 10 2 0 4 -4
4 -10z m-1730 -20 c0 -11 -7 -20 -15 -20 -8 0 -15 9 -15 20 0 11 7 20 15 20 8
0 15 -9 15 -20z m788 -12 c7 -10 22 -18 33 -18 10 0 19 -4 19 -10 0 -5 11 -10
24 -10 15 0 26 -7 29 -19 4 -17 2 -18 -15 -8 -16 10 -22 8 -38 -10 -12 -15
-29 -23 -49 -23 -17 0 -31 -5 -31 -11 0 -5 -5 -7 -11 -3 -16 9 17 29 55 33 8
0 13 9 12 18 -2 31 -33 52 -80 54 -35 2 -43 6 -35 15 12 14 48 23 64 15 6 -3
16 -13 23 -23z m-328 12 c0 -5 -5 -10 -11 -10 -5 0 -7 5 -4 10 3 6 8 10 11 10
2 0 4 -4 4 -10z m370 1 c0 -5 -7 -11 -15 -15 -9 -3 -15 0 -15 9 0 8 7 15 15
15 8 0 15 -4 15 -9z m-708 -23 c-7 -7 -12 -8 -12 -2 0 6 3 14 7 17 3 4 9 5 12
2 2 -3 -1 -11 -7 -17z m298 12 c0 -5 -10 -10 -22 -10 -19 0 -20 2 -8 10 19 13
30 13 30 0z m182 -50 c-22 -26 -24 -25 -10 5 6 13 15 22 19 19 5 -2 1 -14 -9
-24z m-94 -3 c15 4 15 3 2 -6 -18 -13 -50 -14 -50 -2 0 12 24 20 28 10 2 -4
11 -5 20 -2z m-725 -6 c17 -6 17 -8 3 -20 -11 -9 -16 -10 -16 -2 0 6 -5 11
-11 11 -5 0 -7 -4 -4 -10 3 -6 -1 -7 -9 -4 -19 7 -21 20 -3 27 16 7 19 7 40
-2z m784 3 c-3 -3 -12 -4 -19 -1 -8 3 -5 6 6 6 11 1 17 -2 13 -5z m645 -56
c-5 -5 -24 -8 -42 -6 -40 4 -54 28 -16 28 14 0 31 6 38 14 11 12 14 11 21 -7
4 -11 4 -24 -1 -29z m-1497 14 c-3 -3 -11 0 -18 7 -9 10 -8 11 6 5 10 -3 15
-9 12 -12z m170 -2 c-3 -5 -10 -10 -16 -10 -5 0 -9 5 -9 10 0 6 7 10 16 10 8
0 12 -4 9 -10z m1399 -26 c5 -12 2 -15 -10 -10 -8 3 -18 6 -20 6 -3 0 -2 5 1
10 9 15 22 12 29 -6z m-359 -44 c3 -5 1 -10 -4 -10 -6 0 -11 5 -11 10 0 6 2
10 4 10 3 0 8 -4 11 -10z m248 -15 c-3 -8 -9 -15 -14 -15 -10 0 -12 24 -3 33
11 11 24 -3 17 -18z m-96 -11 c-3 -3 -12 -4 -19 -1 -8 3 -5 6 6 6 11 1 17 -2
13 -5z m493 -45 c0 -6 -4 -7 -10 -4 -5 3 -10 11 -10 16 0 6 5 7 10 4 6 -3 10
-11 10 -16z m-700 -34 c0 -8 -4 -15 -10 -15 -5 0 -7 7 -4 15 4 8 8 15 10 15 2
0 4 -7 4 -15z m226 -10 c-5 -14 9 -20 42 -16 7 1 12 -9 12 -22 0 -16 5 -24 14
-23 8 0 15 -3 15 -9 2 -19 -42 -11 -45 9 -3 24 -24 37 -46 30 -10 -3 -18 -1
-18 5 0 18 12 41 22 41 6 0 8 -7 4 -15z m139 -83 c-7 -8 -35 7 -35 18 0 6 7 6
20 -2 10 -7 17 -14 15 -16z"/>
<path d="M3940 3990 c0 -5 5 -10 10 -10 6 0 10 5 10 10 0 6 -4 10 -10 10 -5 0
-10 -4 -10 -10z"/>
<path d="M3600 3230 c0 -5 7 -10 15 -10 8 0 15 5 15 10 0 6 -7 10 -15 10 -8 0
-15 -4 -15 -10z"/>
<path d="M3652 3174 c-7 -13 -13 -14 -29 -5 -20 10 -33 6 -33 -10 0 -5 7 -6
15 -3 11 4 13 2 9 -9 -8 -21 17 -33 30 -15 6 8 18 13 26 10 13 -4 13 -3 2 11
-8 9 -11 21 -7 27 3 5 4 10 1 10 -3 0 -9 -7 -14 -16z"/>
<path d="M3545 3170 c3 -5 8 -10 11 -10 2 0 4 5 4 10 0 6 -5 10 -11 10 -5 0
-7 -4 -4 -10z"/>
<path d="M3635 2920 c-3 -6 1 -7 9 -4 18 7 21 14 7 14 -6 0 -13 -4 -16 -10z"/>
<path d="M3270 3110 c0 -5 5 -10 11 -10 5 0 7 5 4 10 -3 6 -8 10 -11 10 -2 0
-4 -4 -4 -10z"/>
<path d="M3240 3062 c0 -5 6 -16 13 -27 10 -13 16 -15 21 -6 4 6 2 18 -4 26
-13 16 -30 20 -30 7z"/>
<path d="M3070 1800 c0 -5 5 -10 11 -10 5 0 7 5 4 10 -3 6 -8 10 -11 10 -2 0
-4 -4 -4 -10z"/>
<path d="M3730 4300 c0 -10 6 -22 13 -28 10 -9 13 -5 12 17 0 15 -5 28 -12 28
-7 0 -13 -8 -13 -17z"/>
<path d="M3288 4283 c-22 -6 -22 -9 0 -38 19 -24 35 -22 44 5 4 13 -14 42 -24
39 -2 -1 -11 -3 -20 -6z"/>
<path d="M3692 4258 c5 -15 28 -23 28 -10 0 5 -7 13 -16 16 -10 4 -14 1 -12
-6z"/>
<path d="M3946 4204 c-10 -26 -7 -34 12 -34 13 0 14 2 3 9 -9 6 -10 11 -2 15
13 9 15 26 2 26 -5 0 -12 -7 -15 -16z"/>
<path d="M3120 4199 c0 -5 -4 -8 -8 -5 -4 2 -14 0 -22 -6 -12 -8 -12 -9 2 -5
9 3 19 1 22 -6 3 -9 5 -9 5 1 1 6 8 12 17 12 8 0 12 5 9 10 -8 13 -25 13 -25
-1z"/>
<path d="M3630 4181 c0 -6 4 -11 9 -11 5 0 14 -12 19 -27 l10 -28 1 34 c1 19
-2 31 -6 28 -3 -4 -12 -2 -20 4 -9 9 -13 8 -13 0z"/>
<path d="M3120 4140 c8 -5 11 -10 5 -10 -5 -1 2 -8 18 -16 15 -8 27 -19 27
-24 0 -15 -16 -12 -30 5 -11 14 -14 13 -25 -1 -8 -11 -20 -15 -34 -11 -16 4
-21 1 -21 -14 0 -10 5 -19 10 -19 16 0 12 -22 -7 -36 -21 -16 -47 -18 -38 -4
3 6 2 10 -4 10 -5 0 -12 -4 -16 -9 -3 -6 -14 -8 -25 -6 -17 3 -18 1 -10 -14 5
-10 7 -21 4 -24 -3 -3 -3 -15 1 -26 7 -22 35 -18 35 5 0 8 12 19 26 24 15 6
35 22 46 35 11 14 26 25 33 25 8 0 19 9 25 21 7 11 17 18 24 16 7 -3 19 -1 27
3 11 7 10 12 -4 28 -9 10 -17 24 -17 31 0 7 -4 9 -10 6 -5 -3 -10 -1 -10 4 0
6 -10 11 -22 11 -19 0 -20 -2 -8 -10z m-105 -160 c-3 -5 -10 -10 -16 -10 -5 0
-9 5 -9 10 0 6 7 10 16 10 8 0 12 -4 9 -10z"/>
<path d="M4011 4104 c-33 -32 -18 -47 32 -32 20 6 37 15 37 20 0 5 -10 6 -21
3 -19 -6 -21 -4 -16 14 7 27 -2 25 -32 -5z"/>
<path d="M1734 4112 c3 -5 0 -13 -6 -15 -9 -4 -10 -6 -1 -6 17 -1 25 16 12 25
-7 4 -9 3 -5 -4z"/>
<path d="M1775 4044 c0 -28 4 -34 21 -34 25 0 52 27 38 39 -5 4 -20 12 -34 18
-24 10 -25 9 -25 -23z"/>
<path d="M4060 4035 c-8 -9 -9 -15 -2 -15 6 0 14 5 17 10 4 6 11 7 17 4 7 -4
8 -2 4 4 -10 16 -21 15 -36 -3z"/>
<path d="M2934 3989 c-3 -6 -2 -15 4 -21 6 -6 12 -6 16 1 4 6 2 11 -4 11 -6 0
-8 5 -5 10 3 6 4 10 1 10 -3 0 -8 -5 -12 -11z"/>
<path d="M3083 3978 c3 -9 1 -19 -6 -22 -7 -2 -4 -5 6 -5 20 -1 21 7 6 29 -9
13 -10 13 -6 -2z"/>
<path d="M1717 3973 c-9 -9 22 -43 40 -43 17 0 17 6 -4 30 -19 21 -26 24 -36
13z"/>
<path d="M3537 3973 c-12 -12 -7 -33 8 -33 7 0 18 -7 23 -17 6 -9 16 -14 25
-10 14 5 11 11 -14 37 -34 33 -33 33 -42 23z"/>
<path d="M4500 3956 c0 -2 8 -10 18 -17 15 -13 16 -12 3 4 -13 16 -21 21 -21
13z"/>
<path d="M1200 3929 c0 -5 5 -7 10 -4 6 3 10 8 10 11 0 2 -4 4 -10 4 -5 0 -10
-5 -10 -11z"/>
<path d="M3060 3926 c0 -9 5 -16 10 -16 6 0 10 4 10 9 0 6 -4 13 -10 16 -5 3
-10 -1 -10 -9z"/>
<path d="M3275 3930 c-3 -5 -1 -10 4 -10 6 0 11 5 11 10 0 6 -2 10 -4 10 -3 0
-8 -4 -11 -10z"/>
<path d="M3435 3929 c-10 -15 1 -23 20 -15 9 3 13 10 10 16 -8 13 -22 13 -30
-1z"/>
<path d="M3640 3910 c0 -12 28 -25 36 -17 3 3 -4 10 -15 17 -15 7 -21 7 -21 0z"/>
<path d="M3267 3890 c6 -24 -4 -25 -29 -3 -10 9 -18 11 -18 5 0 -6 5 -14 10
-17 16 -10 12 -38 -5 -31 -9 3 -15 0 -15 -9 0 -19 9 -19 29 -1 9 7 27 17 41
21 21 7 23 6 13 -7 -10 -11 -8 -17 7 -28 13 -9 18 -21 14 -32 -3 -10 -1 -18 5
-18 6 0 8 19 6 45 -3 38 0 47 18 57 21 11 21 11 2 19 -28 11 -43 10 -25 -1 12
-7 12 -12 2 -22 -8 -8 -12 -8 -12 -1 0 6 -11 18 -24 26 -23 15 -24 15 -19 -3z"/>
<path d="M3601 3897 c-9 -12 -7 -16 9 -20 21 -5 25 0 11 21 -6 10 -10 10 -20
-1z"/>
<path d="M1230 3890 c20 -13 33 -13 25 0 -3 6 -14 10 -23 10 -15 0 -15 -2 -2
-10z"/>
<path d="M4413 3893 c-15 -5 -17 -33 -3 -33 6 0 10 -4 10 -10 0 -5 -3 -9 -7
-9 -25 4 -34 -3 -28 -21 4 -11 2 -20 -4 -20 -6 0 -11 9 -11 20 0 11 -4 20 -9
20 -6 0 -6 -12 0 -32 11 -40 11 -38 -1 -38 -5 0 -16 16 -24 35 -8 19 -17 35
-20 35 -9 0 5 -62 20 -92 16 -31 19 -57 5 -42 -5 5 -19 27 -31 49 l-22 40 6
-45 c3 -25 3 -39 0 -32 -11 24 -26 12 -22 -18 3 -21 0 -30 -9 -30 -8 0 -12 -4
-8 -10 7 -12 36 -2 52 18 7 9 29 15 54 15 34 0 39 2 27 11 -8 6 -18 22 -21 36
-4 14 -4 19 -1 13 3 -7 10 -13 15 -13 6 0 8 4 4 9 -3 5 -1 12 4 15 12 8 62
-55 54 -67 -3 -4 -11 -6 -18 -3 -8 3 -12 -4 -12 -19 0 -16 4 -22 13 -18 8 3
14 -1 14 -11 0 -9 5 -16 10 -16 6 0 8 11 4 26 -4 17 -2 29 7 35 19 12 39 11
39 -2 0 -5 -4 -8 -9 -4 -16 9 -22 -12 -12 -38 10 -26 47 -42 54 -23 2 6 0 23
-4 38 -4 15 -5 36 -2 47 5 19 3 20 -27 10 -23 -9 -34 -9 -43 0 -8 8 -7 11 5
11 27 0 32 20 9 41 -12 11 -19 25 -15 30 3 5 0 8 -7 7 -8 -2 -13 12 -15 40 -2
49 -4 51 -21 45z m11 -78 c3 -8 1 -15 -3 -15 -5 0 -11 7 -15 15 -3 8 -1 15 3
15 5 0 11 -7 15 -15z"/>
<path d="M4301 3864 c0 -11 3 -14 6 -6 3 7 2 16 -1 19 -3 4 -6 -2 -5 -13z"/>
<path d="M4547 3830 c10 -25 20 -37 29 -33 26 10 8 54 -27 66 -15 5 -16 2 -2
-33z"/>
<path d="M3035 3850 c-3 -5 1 -10 9 -10 9 0 16 -5 16 -12 0 -9 3 -9 11 -1 6 6
8 16 5 22 -9 14 -33 14 -41 1z"/>
<path d="M4500 3844 c0 -3 7 -12 15 -20 16 -17 18 -14 9 10 -6 15 -24 23 -24
10z"/>
<path d="M3178 3833 c7 -3 16 -2 19 1 4 3 -2 6 -13 5 -11 0 -14 -3 -6 -6z"/>
<path d="M2620 3794 c0 -8 5 -12 10 -9 6 4 8 11 5 16 -9 14 -15 11 -15 -7z"/>
<path d="M4126 3771 c-17 -18 -16 -20 6 -26 13 -4 32 -15 42 -24 18 -15 18
-15 6 9 -9 17 -10 25 -1 28 6 2 11 8 11 13 0 6 -4 8 -9 4 -5 -3 -12 -1 -16 5
-9 15 -20 12 -39 -9z"/>
<path d="M2336 3765 c4 -8 10 -15 15 -15 4 0 6 7 3 15 -4 8 -10 15 -15 15 -4
0 -6 -7 -3 -15z"/>
<path d="M2263 3757 c3 -9 -2 -26 -12 -39 -19 -22 -19 -23 12 -36 27 -11 32
-10 50 8 10 12 25 19 32 16 7 -2 16 1 18 8 4 10 -1 12 -14 9 -10 -3 -26 -2
-35 1 -13 5 -14 9 -4 21 10 12 10 15 -3 15 -8 0 -23 3 -33 7 -13 5 -16 3 -11
-10z m14 -42 c0 -8 -4 -15 -9 -15 -10 0 -11 14 -1 23 9 10 10 9 10 -8z"/>
<path d="M1030 3743 c0 -3 8 -15 17 -25 15 -16 15 -21 3 -28 -12 -7 -12 -10 3
-16 28 -10 32 3 11 41 -17 32 -34 46 -34 28z"/>
<path d="M4575 3740 c-4 -6 -1 -10 6 -10 8 0 8 -4 -1 -15 -7 -9 -8 -15 -2 -15
5 0 22 -24 37 -52 29 -58 42 -74 50 -67 8 8 -15 80 -24 74 -12 -7 -34 22 -26
35 3 5 0 10 -7 10 -8 0 -9 3 -2 8 6 4 4 13 -8 24 -10 10 -20 13 -23 8z"/>
<path d="M2190 3733 c0 -5 4 -15 10 -23 11 -18 25 -7 17 15 -6 15 -27 21 -27
8z"/>
<path d="M1110 3720 c0 -5 5 -10 10 -10 6 0 10 5 10 10 0 6 -4 10 -10 10 -5 0
-10 -4 -10 -10z"/>
<path d="M1630 3710 c0 -5 4 -10 9 -10 6 0 13 5 16 10 3 6 -1 10 -9 10 -9 0
-16 -4 -16 -10z"/>
<path d="M3900 3710 c0 -5 5 -10 11 -10 5 0 7 5 4 10 -3 6 -8 10 -11 10 -2 0
-4 -4 -4 -10z"/>
<path d="M1690 3695 c0 -8 -4 -15 -8 -15 -4 0 -9 -10 -9 -22 -2 -17 0 -19 7
-8 8 13 10 13 14 0 3 -8 5 -28 3 -44 -1 -17 4 -31 11 -33 10 -4 12 4 6 33 -3
22 -12 45 -18 53 -8 11 -8 15 2 18 14 5 16 33 2 33 -5 0 -10 -7 -10 -15z"/>
<path d="M3775 3701 c-3 -5 -1 -12 5 -16 5 -3 10 1 10 9 0 18 -6 21 -15 7z"/>
<path d="M1146 3689 c4 -8 -1 -9 -15 -4 -18 5 -22 3 -19 -12 2 -13 -3 -17 -19
-16 -17 2 -24 -4 -29 -22 -3 -14 -11 -25 -16 -25 -6 0 -4 -8 3 -17 10 -12 11
-15 1 -9 -10 6 -11 1 -6 -21 4 -15 12 -31 18 -35 15 -10 30 2 17 15 -26 26
-12 44 36 46 59 2 65 8 25 23 -32 12 -43 28 -19 28 7 0 19 8 28 18 16 19 15
42 -2 42 -6 0 -7 -5 -3 -11z"/>
<path d="M1485 3680 c-3 -5 -1 -10 4 -10 6 0 11 5 11 10 0 6 -2 10 -4 10 -3 0
-8 -4 -11 -10z"/>
<path d="M2600 3670 c0 -19 3 -21 12 -12 9 9 9 15 0 24 -9 9 -12 7 -12 -12z"/>
<path d="M430 3660 c0 -5 5 -10 11 -10 5 0 7 5 4 10 -3 6 -8 10 -11 10 -2 0
-4 -4 -4 -10z"/>
<path d="M1575 3643 c-3 -9 -1 -21 5 -27 7 -7 10 -5 10 6 0 9 5 18 12 20 8 3
6 7 -4 11 -10 3 -19 0 -23 -10z"/>
<path d="M4340 3635 c-5 -14 -2 -26 10 -40 9 -11 27 -42 40 -68 30 -64 47 -50
29 25 -7 29 -16 57 -21 63 -4 5 -8 16 -8 25 0 23 -41 20 -50 -5z m54 -51 c3
-8 2 -12 -4 -9 -6 3 -10 10 -10 16 0 14 7 11 14 -7z"/>
<path d="M495 3640 c-3 -5 -1 -10 4 -10 6 0 11 5 11 10 0 6 -2 10 -4 10 -3 0
-8 -4 -11 -10z"/>
<path d="M1770 3640 c20 -13 33 -13 25 0 -3 6 -14 10 -23 10 -15 0 -15 -2 -2
-10z"/>
<path d="M4550 3640 c0 -5 4 -10 9 -10 6 0 13 5 16 10 3 6 -1 10 -9 10 -9 0
-16 -4 -16 -10z"/>
<path d="M1729 3623 c-13 -16 -12 -17 4 -4 9 7 17 15 17 17 0 8 -8 3 -21 -13z"/>
<path d="M2322 3618 c3 -15 0 -29 -6 -32 -8 -3 -8 -5 0 -5 6 -1 17 6 24 15 11
12 10 18 -5 32 -17 16 -17 16 -13 -10z"/>
<path d="M2570 3625 c-15 -18 -5 -49 12 -39 9 6 9 9 0 12 -17 5 -15 22 3 22 8
0 15 5 15 10 0 15 -16 12 -30 -5z"/>
<path d="M625 3620 c-3 -5 3 -20 14 -32 l21 -22 0 32 c0 31 -21 45 -35 22z"/>
<path d="M1336 3621 c-13 -5 -16 -10 -9 -14 7 -4 14 -3 18 2 3 6 13 7 22 4 11
-4 14 -3 9 5 -8 13 -13 14 -40 3z"/>
<path d="M2510 3620 c0 -5 5 -10 11 -10 5 0 7 5 4 10 -3 6 -8 10 -11 10 -2 0
-4 -4 -4 -10z"/>
<path d="M4150 3625 c0 -2 5 -16 10 -31 7 -18 14 -24 21 -17 12 12 2 40 -17
47 -8 3 -14 4 -14 1z"/>
<path d="M3897 3603 c-4 -3 -7 -11 -7 -17 0 -6 5 -5 12 2 6 6 9 14 7 17 -3 3
-9 2 -12 -2z"/>
<path d="M4499 3609 c-7 -32 -4 -46 9 -41 11 4 14 1 10 -10 -4 -9 -1 -21 5
-27 16 -16 -6 -14 -29 4 -28 21 -30 19 -26 -20 2 -19 8 -35 13 -35 5 0 9 -15
9 -32 0 -18 -4 -28 -8 -22 -11 17 -42 25 -42 11 0 -17 29 -57 41 -57 6 0 23
12 37 28 36 36 60 67 46 59 -7 -4 -15 4 -19 20 -4 17 -2 29 4 31 6 2 9 8 5 13
-3 5 2 9 10 9 9 0 15 -5 14 -11 -2 -6 2 -13 9 -16 8 -3 9 6 3 30 -10 48 -17
56 -40 50 -11 -3 -27 0 -35 7 -8 7 -15 11 -16 9z m71 -39 c0 -5 -4 -10 -10
-10 -5 0 -10 5 -10 10 0 6 5 10 10 10 6 0 10 -4 10 -10z"/>
<path d="M2701 3584 c-1 -22 31 -58 42 -47 14 13 7 35 -8 29 -10 -4 -19 2 -25
17 -8 21 -9 21 -9 1z"/>
<path d="M3743 3585 c0 -8 4 -15 9 -15 4 0 8 4 8 9 0 6 -4 12 -8 15 -5 3 -9
-1 -9 -9z"/>
<path d="M2596 3574 c-3 -8 -1 -16 4 -19 6 -4 10 -2 10 4 0 6 7 8 15 5 10 -4
13 -2 10 8 -7 18 -32 19 -39 2z"/>
<path d="M1261 3564 c0 -11 3 -14 6 -6 3 7 2 16 -1 19 -3 4 -6 -2 -5 -13z"/>
<path d="M387 3550 c-3 -11 -1 -20 4 -20 5 0 9 9 9 20 0 11 -2 20 -4 20 -2 0
-6 -9 -9 -20z"/>
<path d="M2630 3542 c0 -13 38 -23 46 -11 3 5 1 9 -5 9 -5 0 -16 3 -25 6 -9 3
-16 2 -16 -4z"/>
<path d="M1675 3520 c3 -5 8 -10 11 -10 2 0 4 5 4 10 0 6 -5 10 -11 10 -5 0
-7 -4 -4 -10z"/>
<path d="M2620 3505 c0 -8 2 -15 4 -15 2 0 6 7 10 15 3 8 1 15 -4 15 -6 0 -10
-7 -10 -15z"/>
<path d="M4320 3497 c0 -7 7 -22 15 -33 13 -17 14 -16 4 14 -11 33 -19 41 -19
19z"/>
<path d="M1273 3484 c0 -16 13 -19 21 -5 3 5 0 11 -7 14 -8 3 -14 -1 -14 -9z"/>
<path d="M2530 3480 c0 -5 4 -10 9 -10 5 0 18 -3 28 -6 16 -6 16 -5 -2 9 -23
19 -35 21 -35 7z"/>
<path d="M1237 3465 c-4 -8 -13 -15 -22 -15 -19 0 -20 -16 -1 -23 13 -5 42 40
33 50 -3 2 -7 -3 -10 -12z"/>
<path d="M1900 3455 c7 -9 15 -13 17 -11 7 7 -7 26 -19 26 -6 0 -6 -6 2 -15z"/>
<path d="M4340 3431 c0 -5 7 -15 17 -22 15 -13 15 -12 4 9 -12 23 -21 28 -21
13z"/>
<path d="M1240 3401 c0 -6 4 -13 10 -16 6 -3 7 1 4 9 -7 18 -14 21 -14 7z"/>
<path d="M1560 3390 c0 -5 5 -10 10 -10 6 0 10 5 10 10 0 6 -4 10 -10 10 -5 0
-10 -4 -10 -10z"/>
<path d="M4550 3340 c-11 -7 -12 -12 -3 -21 8 -8 14 -6 22 10 12 22 5 27 -19
11z"/>
<path d="M4488 3313 c0 -10 -1 -24 -1 -30 1 -20 -25 -15 -30 5 -4 13 -2 -47 3
-78 1 -9 49 95 50 108 0 19 -20 14 -22 -5z"/>
<path d="M4260 3260 c-8 -5 -23 -7 -32 -4 -25 8 -23 -19 3 -42 22 -19 22 -19
10 4 -10 19 -10 23 1 21 18 -3 48 11 48 22 0 12 -11 11 -30 -1z"/>
<path d="M4570 3253 c0 -24 -19 -30 -37 -12 -7 7 -10 3 -10 -15 0 -13 6 -27
14 -30 10 -4 12 -13 8 -28 -4 -16 -3 -19 3 -9 8 11 11 11 18 0 4 -7 3 -14 -4
-17 -18 -6 -14 -19 7 -25 13 -3 22 3 29 18 9 19 7 24 -6 27 -10 3 -18 16 -19
29 -2 18 0 20 7 9 5 -8 10 -10 10 -5 0 6 4 4 9 -3 6 -10 10 -10 21 3 11 13 10
15 -4 9 -11 -4 -16 -1 -16 10 0 10 5 13 18 9 14 -6 15 -4 5 9 -7 8 -9 19 -5
23 4 5 -2 5 -12 1 -12 -4 -23 -2 -28 6 -5 9 -8 6 -8 -9z"/>
<path d="M4680 3245 c0 -8 5 -15 10 -15 6 0 10 7 10 15 0 8 -4 15 -10 15 -5 0
-10 -7 -10 -15z"/>
<path d="M4333 3227 c6 -12 16 -25 21 -29 6 -4 5 -12 -2 -21 -7 -8 -11 -21
-10 -28 2 -8 -4 -13 -14 -11 -9 1 -19 -2 -22 -7 -3 -5 10 -11 29 -13 22 -2 34
0 32 7 -5 24 36 94 59 99 36 9 29 26 -8 22 -18 -3 -37 -5 -42 -5 -5 -1 -3 -7
3 -15 8 -10 9 -16 1 -21 -13 -8 -30 3 -30 20 0 7 -7 15 -15 19 -12 4 -13 2 -2
-17z"/>
<path d="M4650 3240 c0 -5 5 -10 10 -10 6 0 10 5 10 10 0 6 -4 10 -10 10 -5 0
-10 -4 -10 -10z"/>
<path d="M4280 3230 c0 -5 5 -10 10 -10 6 0 10 5 10 10 0 6 -4 10 -10 10 -5 0
-10 -4 -10 -10z"/>
<path d="M4107 3213 c-12 -11 -8 -23 8 -23 8 0 15 7 15 15 0 16 -12 20 -23 8z"/>
<path d="M4250 3195 c-7 -13 -17 -22 -22 -19 -4 3 -8 0 -8 -6 0 -6 12 -8 31
-5 23 4 29 2 23 -7 -5 -10 -4 -10 6 -1 11 10 11 15 -1 29 -13 16 -12 16 9 5
12 -7 20 -16 17 -22 -4 -5 -2 -9 4 -9 23 0 18 18 -9 38 -36 27 -34 27 -50 -3z"/>
<path d="M4185 3200 c-3 -5 -1 -10 4 -10 6 0 11 5 11 10 0 6 -2 10 -4 10 -3 0
-8 -4 -11 -10z"/>
<path d="M4477 3194 c-4 -4 -7 -10 -7 -14 0 -9 47 -6 57 4 5 5 1 7 -8 3 -9 -3
-21 -1 -26 4 -5 5 -12 6 -16 3z"/>
<path d="M4143 3172 c3 -14 -1 -25 -11 -31 -9 -5 -13 -13 -9 -17 4 -4 17 2 29
14 22 21 22 22 4 39 -18 17 -18 17 -13 -5z"/>
<path d="M4396 3182 c-2 -4 -1 -14 5 -22 7 -12 9 -10 9 8 0 23 -5 28 -14 14z"/>
<path d="M4467 3153 c-4 -7 -14 -10 -22 -6 -31 11 -13 -18 26 -43 28 -17 45
-22 51 -16 6 6 17 8 26 5 10 -4 13 -1 10 8 -3 9 -18 14 -41 13 -32 -1 -36 2
-39 25 -2 17 -6 22 -11 14z"/>
<path d="M4240 3140 c0 -5 10 -10 23 -10 18 0 19 2 7 10 -19 13 -30 13 -30 0z"/>
<path d="M4080 3105 c0 -8 5 -15 10 -15 6 0 10 7 10 15 0 8 -4 15 -10 15 -5 0
-10 -7 -10 -15z"/>
<path d="M3986 3095 c-3 -8 -1 -15 4 -15 6 0 10 7 10 15 0 8 -2 15 -4 15 -2 0
-6 -7 -10 -15z"/>
<path d="M4269 3088 c0 -13 -2 -31 -4 -40 -2 -10 1 -18 6 -18 5 0 9 6 10 13 0
6 2 24 4 40 2 15 -1 27 -6 27 -5 0 -9 -10 -10 -22z"/>
<path d="M4140 3080 c-10 -6 -11 -10 -2 -10 6 0 12 -8 13 -17 0 -15 2 -15 9 2
16 37 10 44 -20 25z"/>
<path d="M4426 3074 c-8 -21 -8 -21 14 -27 25 -6 60 2 60 15 0 5 -4 7 -9 4 -5
-3 -14 1 -21 9 -16 20 -36 19 -44 -1z"/>
<path d="M4005 3071 c-3 -5 -1 -12 5 -16 5 -3 10 1 10 9 0 18 -6 21 -15 7z"/>
<path d="M4605 3070 c-3 -4 4 -10 15 -13 11 -3 22 -2 25 3 3 4 -4 10 -15 13
-11 3 -22 2 -25 -3z"/>
<path d="M4175 3050 c-3 -5 0 -10 7 -11 7 0 2 -5 -12 -10 l-25 -10 23 -19 c12
-10 22 -20 22 -23 0 -13 -41 -13 -59 0 -17 11 -21 11 -22 1 -1 -7 -2 -20 -3
-28 -2 -20 14 -41 25 -34 5 3 9 -9 9 -25 0 -33 -9 -37 -41 -21 -16 9 -19 7
-19 -8 0 -25 39 -74 51 -66 17 10 38 -16 35 -43 -2 -15 -10 -27 -18 -29 -11
-1 -14 4 -11 16 3 12 -2 20 -16 25 -12 3 -19 10 -16 15 7 12 -21 31 -37 25
-21 -8 -40 -52 -27 -61 7 -4 7 -10 0 -18 -6 -7 -7 -24 -2 -42 7 -24 10 -26 16
-11 4 9 5 33 3 52 -2 22 0 34 6 32 6 -2 11 -10 11 -18 0 -20 47 -57 53 -41 2
7 8 10 13 6 5 -3 5 -13 -2 -25 -7 -15 -7 -29 0 -52 8 -22 8 -33 0 -38 -6 -4
-9 -11 -5 -17 3 -5 -2 -13 -11 -16 -12 -5 -13 -10 -5 -18 8 -8 15 -8 27 2 8 7
18 10 22 7 3 -4 12 -2 20 4 17 15 16 -1 -2 -25 -13 -17 -15 -18 -15 -3 0 9 -4
17 -10 17 -5 0 -10 -7 -10 -15 0 -8 -6 -15 -13 -15 -6 0 -18 -13 -25 -29 -9
-21 -18 -28 -29 -24 -11 4 -14 2 -11 -8 7 -21 36 -23 54 -4 19 19 40 15 36 -8
-1 -8 3 -19 9 -23 9 -5 10 -2 6 9 -5 13 -1 17 17 17 12 0 25 2 28 5 8 9 -4 65
-13 59 -5 -3 -9 2 -9 10 0 8 8 19 17 25 10 5 15 13 11 17 -5 4 -3 13 3 21 6 7
8 13 4 13 -4 0 5 10 21 23 25 19 88 32 78 16 -2 -4 3 -10 12 -13 14 -5 14 -9
3 -23 -12 -15 -12 -16 4 -10 10 4 16 3 12 -2 -3 -5 -1 -12 5 -16 16 -10 12
-35 -6 -35 -9 0 -18 9 -21 20 -6 24 -19 26 -31 3 -7 -11 -5 -30 4 -55 8 -23 9
-40 3 -43 -5 -4 -9 -21 -9 -39 0 -48 -36 -116 -61 -116 -14 0 -19 -5 -16 -14
4 -10 0 -12 -14 -9 -11 3 -19 0 -19 -8 0 -7 3 -10 6 -6 3 3 17 1 31 -4 21 -8
29 -5 49 16 13 14 18 27 13 31 -14 8 9 34 32 34 11 0 32 21 53 54 36 52 45 86
26 86 -15 0 -12 46 3 59 10 8 17 7 26 -2 11 -10 12 -8 6 11 -5 16 -2 22 9 22
25 0 29 21 7 41 -28 26 -41 24 -35 -6 6 -32 -2 -46 -21 -38 -17 6 -16 33 0 46
6 4 1 7 -10 6 -33 -2 -45 0 -45 11 0 6 8 10 18 10 21 1 58 27 49 36 -3 3 -21
6 -41 7 -26 1 -38 7 -48 25 -16 31 -75 60 -112 56 -28 -3 -28 -2 -12 14 14 14
18 15 25 3 6 -9 11 -10 15 -2 4 6 4 11 0 11 -3 0 -2 6 4 13 7 8 7 17 -2 29
-12 16 -14 16 -24 -7 -16 -34 -36 -33 -28 2 4 15 3 29 -4 33 -7 5 -8 15 -1 33
8 21 7 25 -3 21 -30 -12 -25 18 8 47 34 29 49 69 26 69 -5 0 -7 7 -4 15 7 17
-31 22 -41 5z m-85 -270 c0 -5 -4 -10 -9 -10 -6 0 -13 5 -16 10 -3 6 1 10 9
10 9 0 16 -4 16 -10z m140 -95 c0 -9 -7 -18 -15 -21 -8 -3 -17 -14 -20 -25 -4
-11 -15 -19 -27 -19 -12 0 -18 3 -15 7 4 3 2 12 -5 20 -6 7 -9 15 -7 17 48 37
89 47 89 21z m90 -4 c0 -16 -30 -33 -46 -27 -16 6 -15 8 2 21 21 16 44 19 44
6z m20 -165 c0 -3 -4 -8 -10 -11 -5 -3 -10 -1 -10 4 0 6 5 11 10 11 6 0 10 -2
10 -4z m46 -31 c-2 -7 0 -17 5 -22 5 -5 7 -17 3 -26 -7 -19 -23 -23 -25 -7 -3
20 -4 25 -11 36 -4 6 -4 20 -1 32 4 18 8 20 20 11 8 -7 12 -18 9 -24z"/>
<path d="M4156 2661 c-3 -5 3 -11 14 -14 13 -3 20 0 20 9 0 15 -26 19 -34 5z"/>
<path d="M3088 3025 c-4 -20 -2 -23 8 -14 7 6 10 17 7 25 -7 20 -10 18 -15
-11z"/>
<path d="M3983 3039 c14 -8 16 -14 6 -25 -9 -11 -9 -14 1 -14 10 0 10 -3 1
-14 -8 -10 -9 -16 -1 -21 5 -3 10 0 11 7 0 7 2 24 3 38 3 24 -8 40 -29 40 -5
-1 -2 -5 8 -11z"/>
<path d="M4608 3026 c-15 -8 -42 -29 -61 -48 -18 -18 -45 -43 -60 -53 l-26
-20 30 -33 30 -33 29 21 c36 26 40 39 5 16 -34 -22 -45 -20 -45 9 0 20 5 25
26 25 21 0 24 3 15 14 -9 10 -8 16 4 26 12 10 15 9 15 -6 1 -18 1 -18 15 0 7
10 19 15 24 11 6 -3 13 0 15 7 1 7 8 28 14 46 12 36 8 38 -30 18z"/>
<path d="M4386 3012 c-2 -4 -1 -14 5 -22 12 -21 11 -30 -5 -30 -7 0 -16 -9
-19 -20 -3 -12 -14 -20 -27 -20 -12 0 -18 -4 -15 -10 4 -6 10 -8 15 -5 4 3 11
-3 14 -12 4 -9 1 -20 -6 -25 -8 -4 -8 -8 -2 -8 12 0 44 32 44 44 0 4 -4 4 -10
1 -16 -10 -11 11 6 26 13 10 17 10 24 -1 5 -8 12 -11 17 -7 4 5 2 12 -5 16
-18 11 -5 38 20 45 18 4 19 7 8 20 -13 17 -55 22 -64 8z"/>
<path d="M577 2990 c3 -11 9 -17 15 -14 5 3 4 12 -3 20 -16 19 -18 18 -12 -6z"/>
<path d="M4342 2984 c10 -10 20 -15 24 -12 3 4 -5 12 -18 18 -22 12 -22 12 -6
-6z"/>
<path d="M3010 2980 c0 -5 5 -10 10 -10 6 0 10 5 10 10 0 6 -4 10 -10 10 -5 0
-10 -4 -10 -10z"/>
<path d="M1960 2973 c0 -7 -7 -13 -15 -13 -8 0 -15 -5 -15 -11 0 -5 5 -7 10
-4 6 3 10 -3 10 -14 0 -11 -4 -23 -10 -26 -5 -3 -10 -12 -10 -18 0 -7 4 -6 10
3 8 13 10 12 10 -2 0 -10 4 -18 9 -18 4 0 6 -12 3 -26 -5 -26 13 -48 30 -38
13 9 9 24 -5 18 -14 -5 -17 29 -4 42 4 4 7 17 7 30 0 12 6 25 13 28 6 3 -1 3
-17 -1 -25 -5 -27 -4 -18 14 7 12 7 25 1 34 -6 10 -9 10 -9 2z"/>
<path d="M4233 2928 c-1 -26 3 -48 8 -48 5 0 9 -7 9 -15 0 -8 5 -15 10 -15 15
0 12 16 -5 30 -10 9 -12 17 -6 23 5 5 7 17 3 26 -5 14 -4 14 13 1 17 -14 18
-13 11 5 -5 11 -9 25 -9 30 0 6 -8 11 -16 11 -12 0 -17 -12 -18 -48z"/>
<path d="M4017 2963 c-4 -3 -7 -11 -7 -17 0 -6 5 -5 12 2 6 6 9 14 7 17 -3 3
-9 2 -12 -2z"/>
<path d="M1863 2945 c0 -8 7 -15 14 -15 8 0 12 -4 9 -9 -6 -9 23 -25 31 -18 5
5 -37 57 -46 57 -4 0 -8 -7 -8 -15z"/>
<path d="M2977 2910 c8 -30 21 -34 15 -5 -2 14 -8 25 -12 25 -5 0 -6 -9 -3
-20z"/>
<path d="M3920 2905 c0 -8 2 -15 4 -15 2 0 6 7 10 15 3 8 1 15 -4 15 -6 0 -10
-7 -10 -15z"/>
<path d="M3859 2908 c-7 -23 -5 -38 5 -38 6 0 12 9 12 20 0 16 -13 29 -17 18z"/>
<path d="M4415 2871 c-6 -5 -19 -11 -30 -14 -15 -4 -14 -5 7 -6 15 0 30 4 33
9 11 18 26 10 20 -10 -4 -12 -2 -20 5 -20 6 0 10 10 8 22 -3 24 -27 35 -43 19z"/>
<path d="M4600 2861 c0 -7 -5 -9 -10 -6 -6 3 -24 -4 -41 -15 -36 -26 -32 -39
5 -15 16 11 26 13 26 6 0 -6 -5 -11 -10 -11 -7 0 -7 -8 1 -22 11 -20 12 -19
26 21 8 24 12 45 9 49 -3 3 -6 0 -6 -7z"/>
<path d="M3936 2838 c3 -5 10 -6 15 -3 13 9 11 12 -6 12 -8 0 -12 -4 -9 -9z"/>
<path d="M1040 2830 c0 -5 5 -10 10 -10 6 0 10 5 10 10 0 6 -4 10 -10 10 -5 0
-10 -4 -10 -10z"/>
<path d="M2279 2822 c6 -11 6 -24 -1 -35 -8 -15 -6 -19 11 -24 11 -3 18 -9 15
-14 -8 -14 6 -11 21 5 12 12 12 16 1 25 -7 6 -16 8 -19 4 -4 -3 -7 5 -7 19 0
14 -7 28 -15 32 -12 4 -13 2 -6 -12z"/>
<path d="M957 2806 c-23 -20 -25 -25 -11 -30 22 -8 24 -8 24 9 0 7 7 18 16 23
9 5 12 12 7 15 -5 3 -21 -5 -36 -17z"/>
<path d="M4353 2814 c-3 -9 -1 -20 6 -27 7 -7 11 -7 11 0 0 5 11 8 24 6 38 -8
38 13 0 25 -29 9 -36 8 -41 -4z"/>
<path d="M4474 2819 c-5 -8 -3 -10 5 -5 8 5 14 0 18 -13 5 -21 43 -30 43 -11
0 6 -5 10 -12 10 -6 0 -19 7 -29 16 -13 12 -19 12 -25 3z"/>
<path d="M3818 2806 c-23 -17 -23 -28 3 -44 21 -13 63 -7 54 8 -3 5 1 11 7 13
8 3 5 6 -6 6 -12 1 -16 6 -12 16 7 19 -22 20 -46 1z m24 -14 c3 -11 0 -19 -8
-19 -15 0 -19 19 -7 30 9 10 10 9 15 -11z"/>
<path d="M485 2800 c3 -5 8 -10 11 -10 2 0 4 5 4 10 0 6 -5 10 -11 10 -5 0 -7
-4 -4 -10z"/>
<path d="M2755 2800 c-4 -6 -2 -17 4 -23 15 -15 25 -2 13 19 -7 12 -11 13 -17
4z"/>
<path d="M4433 2779 c-11 -28 -16 -31 -47 -27 -34 4 -35 3 -16 -14 10 -10 21
-18 24 -18 12 0 66 61 66 75 0 25 -15 17 -27 -16z"/>
<path d="M3157 2777 c-10 -10 -16 -21 -13 -24 7 -7 39 25 34 35 -2 4 -11 -1
-21 -11z"/>
<path d="M4013 2793 c-15 -5 -17 -23 -4 -23 5 0 11 7 15 15 3 8 4 15 3 14 -1
0 -8 -3 -14 -6z"/>
<path d="M4290 2790 c0 -5 5 -10 11 -10 5 0 7 5 4 10 -3 6 -8 10 -11 10 -2 0
-4 -4 -4 -10z"/>
<path d="M490 2773 c1 -5 7 -19 15 -33 10 -18 14 -20 15 -8 0 23 -11 48 -21
48 -5 0 -9 -3 -9 -7z"/>
<path d="M805 2770 c3 -5 8 -10 11 -10 2 0 4 5 4 10 0 6 -5 10 -11 10 -5 0 -7
-4 -4 -10z"/>
<path d="M3930 2755 c0 -8 4 -15 9 -15 5 0 11 7 15 15 3 9 0 15 -9 15 -8 0
-15 -7 -15 -15z"/>
<path d="M2776 2751 c-4 -5 -2 -12 3 -15 5 -4 12 -2 15 3 4 5 2 12 -3 15 -5 4
-12 2 -15 -3z"/>
<path d="M2805 2713 l-17 -28 23 22 c12 12 20 25 17 28 -3 3 -13 -7 -23 -22z"/>
<path d="M3863 2711 c0 -19 5 -31 14 -31 7 0 13 6 13 13 0 7 -6 21 -13 31 -12
17 -14 16 -14 -13z"/>
<path d="M2225 2720 c-3 -5 -1 -10 4 -10 6 0 11 5 11 10 0 6 -2 10 -4 10 -3 0
-8 -4 -11 -10z"/>
<path d="M2628 2683 c7 -3 16 -2 19 1 4 3 -2 6 -13 5 -11 0 -14 -3 -6 -6z"/>
<path d="M3244 2666 c-6 -26 16 -56 51 -69 10 -4 15 -10 12 -14 -4 -3 -2 -14
4 -24 13 -24 5 -24 -18 0 -21 21 -63 37 -63 23 0 -5 -10 -22 -21 -36 -17 -21
-22 -43 -24 -97 -1 -50 -7 -74 -20 -89 -10 -11 -14 -20 -9 -20 5 0 3 -4 -4 -8
-7 -5 8 -8 35 -8 57 1 87 15 57 27 -15 6 -14 8 11 9 28 1 29 2 7 10 -31 13
-49 54 -32 75 12 14 11 18 -1 26 -8 5 -17 9 -21 9 -9 0 3 40 13 40 5 0 6 6 3
14 -7 19 35 28 58 12 12 -9 16 -16 9 -21 -14 -8 -14 -25 -1 -25 6 0 10 6 10
13 0 7 16 20 36 27 35 14 36 15 15 31 -24 19 -28 41 -7 33 8 -3 17 -1 21 5 3
6 -1 11 -10 11 -9 0 -14 4 -10 9 6 11 -62 61 -82 61 -7 0 -15 -11 -19 -24z"/>
<path d="M3780 2680 c0 -5 5 -10 10 -10 6 0 10 5 10 10 0 6 -4 10 -10 10 -5 0
-10 -4 -10 -10z"/>
<path d="M3905 2671 c-11 -5 -24 -6 -30 -3 -5 4 -2 -6 7 -20 12 -17 14 -28 6
-30 -13 -5 27 -32 62 -43 20 -6 23 -5 13 6 -18 18 -16 30 2 22 10 -3 15 0 13
8 -5 21 -25 39 -44 39 -13 0 -14 3 -4 15 14 16 6 18 -25 6z"/>
<path d="M1704 2660 c-35 -14 -38 -30 -4 -17 16 6 30 15 30 19 0 9 1 9 -26 -2z"/>
<path d="M3793 2646 c-5 -8 -19 -19 -33 -25 -22 -9 -23 -10 -4 -10 14 -1 20
-7 20 -23 -1 -18 5 -21 39 -22 34 -1 40 2 43 22 3 20 0 22 -21 17 -15 -4 -28
-2 -32 6 -5 8 -4 10 3 5 8 -5 12 2 12 18 0 28 -14 34 -27 12z"/>
<path d="M4445 2650 c-3 -5 -1 -10 4 -10 6 0 11 5 11 10 0 6 -2 10 -4 10 -3 0
-8 -4 -11 -10z"/>
<path d="M3645 2640 c3 -5 8 -10 11 -10 2 0 4 5 4 10 0 6 -5 10 -11 10 -5 0
-7 -4 -4 -10z"/>
<path d="M4500 2629 c0 -11 5 -17 10 -14 6 3 10 13 10 21 0 8 -4 14 -10 14 -5
0 -10 -9 -10 -21z"/>
<path d="M1272 2631 c-11 -6 -10 -10 0 -19 11 -8 14 -7 14 9 0 10 0 19 -1 19
0 0 -6 -4 -13 -9z"/>
<path d="M2140 2620 c0 -5 5 -10 11 -10 5 0 7 5 4 10 -3 6 -8 10 -11 10 -2 0
-4 -4 -4 -10z"/>
<path d="M4083 2605 c-9 -10 -9 -16 -2 -20 14 -9 22 0 17 18 -2 13 -5 13 -15
2z"/>
<path d="M1727 2591 c-4 -17 -3 -21 5 -13 5 5 8 16 6 23 -3 8 -7 3 -11 -10z"/>
<path d="M596 2584 c-8 -20 31 -91 50 -91 11 0 11 5 -3 21 -28 33 -44 66 -33
66 5 0 10 -4 10 -10 0 -5 7 -10 17 -10 14 0 14 2 -2 20 -22 24 -31 25 -39 4z"/>
<path d="M805 2590 c-3 -5 3 -10 15 -10 12 0 18 5 15 10 -3 6 -10 10 -15 10
-5 0 -12 -4 -15 -10z"/>
<path d="M1420 2590 c0 -5 5 -10 11 -10 5 0 7 5 4 10 -3 6 -8 10 -11 10 -2 0
-4 -4 -4 -10z"/>
<path d="M1495 2590 c-11 -5 -16 -9 -12 -9 5 -1 0 -16 -10 -34 -16 -26 -17
-35 -8 -44 10 -9 15 -5 24 14 7 14 9 28 6 31 -3 3 2 16 10 29 9 13 14 23 13
22 -2 0 -12 -4 -23 -9z"/>
<path d="M1646 2589 c-11 -31 -10 -52 1 -56 16 -6 29 45 15 59 -8 8 -13 7 -16
-3z"/>
<path d="M3040 2589 c0 -5 5 -7 10 -4 6 3 10 8 10 11 0 2 -4 4 -10 4 -5 0 -10
-5 -10 -11z"/>
<path d="M860 2576 c0 -8 5 -18 10 -21 19 -12 11 -26 -9 -16 -21 12 -31 5 -31
-21 0 -20 16 -24 23 -5 3 9 9 9 27 -1 23 -14 44 -7 21 8 -11 6 -6 12 18 24 36
19 41 31 10 23 -12 -3 -28 0 -36 9 -18 18 -33 18 -33 0z"/>
<path d="M1145 2579 c-4 -6 -5 -12 -2 -15 2 -3 7 2 10 11 7 17 1 20 -8 4z"/>
<path d="M1322 2556 c-1 -17 1 -18 8 -6 9 13 11 13 19 0 6 -8 13 -12 16 -8 10
10 -8 33 -25 34 -9 1 -17 -8 -18 -20z"/>
<path d="M1396 2565 c-3 -8 -1 -15 4 -15 13 0 22 18 11 24 -5 3 -11 -1 -15 -9z"/>
<path d="M3866 2550 c-17 -6 -18 -7 -3 -13 10 -4 17 -2 17 5 0 6 3 9 6 6 3 -4
1 -16 -6 -27 -6 -12 -7 -21 -3 -20 23 4 32 -4 35 -33 2 -17 8 -33 15 -35 7 -3
9 4 6 18 -4 14 -2 20 6 18 7 -3 11 -7 9 -11 -5 -10 32 -46 53 -51 10 -3 17 -1
13 4 -3 5 -11 9 -19 9 -15 0 -48 58 -40 70 2 4 -12 21 -33 37 -26 21 -43 28
-56 23z"/>
<path d="M1565 2540 c-3 -5 -2 -10 4 -10 5 0 13 5 16 10 3 6 2 10 -4 10 -5 0
-13 -4 -16 -10z"/>
<path d="M1705 2529 c-4 -6 1 -16 11 -24 11 -7 15 -17 11 -21 -4 -5 -12 -2
-17 6 -6 8 -10 11 -10 5 0 -5 5 -17 10 -25 9 -13 12 -12 22 5 15 25 19 47 7
39 -5 -3 -9 2 -9 10 0 18 -16 21 -25 5z"/>
<path d="M4076 2512 c-3 -5 1 -15 9 -22 16 -14 20 -3 6 19 -5 8 -11 9 -15 3z"/>
<path d="M860 2501 c0 -6 4 -13 10 -16 6 -3 7 1 4 9 -7 18 -14 21 -14 7z"/>
<path d="M1084 2475 c3 -36 -2 -43 -20 -25 -13 13 -50 -13 -57 -40 -4 -17 -1
-19 24 -15 22 4 27 2 23 -9 -3 -8 -1 -17 5 -21 11 -6 15 7 12 33 -1 8 4 21 11
30 17 21 23 68 9 76 -5 4 -8 -8 -7 -29z"/>
<path d="M3317 2503 c-4 -3 -7 -11 -7 -17 0 -6 5 -5 12 2 6 6 9 14 7 17 -3 3
-9 2 -12 -2z"/>
<path d="M2670 2481 c-13 -25 2 -36 30 -21 24 13 26 26 4 34 -22 8 -22 8 -34
-13z"/>
<path d="M925 2479 c-11 -16 -1 -19 13 -3 7 8 8 14 3 14 -5 0 -13 -5 -16 -11z"/>
<path d="M1251 2468 c0 -10 -5 -18 -9 -18 -10 0 -9 -56 1 -66 9 -10 19 40 14
72 -2 16 -5 21 -6 12z"/>
<path d="M2627 2446 c-4 -10 -1 -13 8 -9 8 3 12 9 9 14 -7 12 -11 11 -17 -5z"/>
<path d="M3270 2450 c0 -5 5 -10 10 -10 6 0 10 5 10 10 0 6 -4 10 -10 10 -5 0
-10 -4 -10 -10z"/>
<path d="M900 2435 c-14 -8 -20 -14 -15 -14 6 0 21 6 35 14 14 8 21 14 15 14
-5 0 -21 -6 -35 -14z"/>
<path d="M3303 2430 c-28 -11 -29 -15 -4 -17 11 -1 22 5 25 13 3 8 4 14 3 13
-1 0 -12 -4 -24 -9z"/>
<path d="M1536 2405 c4 -8 11 -15 16 -15 6 0 5 6 -2 15 -7 8 -14 15 -16 15 -2
0 -1 -7 2 -15z"/>
<path d="M2976 2379 c-3 -17 -2 -38 3 -47 6 -10 6 -24 0 -34 -14 -27 -2 -40
23 -27 14 7 17 14 9 18 -7 4 -10 29 -9 61 3 59 -15 81 -26 29z"/>
<path d="M3950 2386 c0 -2 7 -6 15 -10 8 -3 15 -1 15 4 0 6 -7 10 -15 10 -8 0
-15 -2 -15 -4z"/>
<path d="M4039 2371 c14 -25 13 -26 -31 -52 -24 -13 -23 -29 2 -29 11 0 20 5
20 11 0 5 10 9 22 7 12 -2 23 3 26 11 3 10 0 12 -12 8 -13 -5 -15 -2 -10 17 3
15 -1 27 -12 37 -16 13 -16 12 -5 -10z"/>
<path d="M4123 2374 c-8 -21 30 -59 48 -48 10 6 7 10 -11 14 -18 4 -25 13 -24
28 1 26 -4 28 -13 6z"/>
<path d="M2452 2349 c-19 -30 -8 -34 12 -4 9 14 13 25 9 25 -5 0 -14 -9 -21
-21z"/>
<path d="M2713 2327 c-23 -36 -43 -73 -43 -81 0 -3 12 -6 28 -6 21 0 24 -2 12
-10 -11 -7 -7 -10 18 -10 29 0 32 2 26 24 -3 13 -1 27 5 30 23 14 11 27 -19
21 -37 -8 -42 15 -8 37 12 8 17 17 12 21 -5 3 -19 -9 -31 -26z"/>
<path d="M1406 2318 c5 -8 2 -9 -10 -5 -11 4 -15 3 -10 -4 4 -6 1 -15 -7 -20
-11 -6 -10 -11 4 -27 9 -10 14 -22 10 -26 -4 -4 -1 -12 8 -16 11 -6 15 -18 11
-35 -3 -18 0 -25 11 -25 18 0 33 33 18 38 -22 7 -10 30 24 46 19 9 35 21 35
27 0 6 -4 8 -9 5 -5 -3 -18 9 -30 27 -11 17 -21 25 -21 18 0 -12 -3 -12 -12
-3 -15 15 -31 16 -22 0z m64 -52 c0 -3 -4 -8 -10 -11 -5 -3 -10 -1 -10 4 0 6
5 11 10 11 6 0 10 -2 10 -4z"/>
<path d="M1726 2303 c-13 -13 -6 -32 10 -26 13 5 15 1 10 -18 -7 -23 -6 -23 8
-5 16 19 16 19 16 -5 1 -22 2 -22 11 -6 17 28 4 62 -24 65 -13 1 -27 -1 -31
-5z"/>
<path d="M2497 2303 c-3 -5 8 -8 24 -9 15 -1 26 3 23 7 -6 11 -41 12 -47 2z"/>
<path d="M4130 2300 c0 -5 5 -10 11 -10 7 0 9 -11 6 -30 -4 -17 -2 -32 5 -36
7 -5 9 -2 5 9 -4 10 0 20 11 26 15 9 15 11 -2 30 -20 23 -36 27 -36 11z"/>
<path d="M2555 2278 c-4 -10 -12 -15 -19 -12 -6 3 -2 -2 8 -10 34 -27 43 -20
26 19 -7 18 -8 19 -15 3z"/>
<path d="M963 2266 c3 -7 -3 -20 -14 -29 -19 -17 -25 -37 -11 -37 4 0 14 6 21
13 11 10 14 10 18 0 3 -7 9 -13 15 -13 6 0 6 6 -2 15 -7 8 -10 26 -8 40 4 17
1 25 -9 25 -9 0 -13 -6 -10 -14z"/>
<path d="M2490 2256 c-11 -21 -10 -29 6 -57 11 -18 26 -34 34 -36 10 -3 9 0
-2 7 -23 14 -23 26 2 47 19 17 19 17 -1 31 -10 7 -17 18 -14 23 4 5 2 9 -3 9
-5 0 -14 -11 -22 -24z"/>
<path d="M1248 2263 c-10 -2 -18 -12 -17 -21 0 -11 2 -12 6 -4 2 6 11 12 19
12 8 0 14 5 14 10 0 6 -1 9 -2 9 -2 -1 -11 -3 -20 -6z"/>
<path d="M3160 2261 c0 -5 5 -13 10 -16 6 -3 10 -2 10 4 0 5 -4 13 -10 16 -5
3 -10 2 -10 -4z"/>
<path d="M4013 2246 c18 -26 15 -52 -4 -40 -6 3 -5 -3 3 -15 7 -12 21 -21 31
-21 10 0 25 -6 33 -14 19 -19 18 -32 -1 -16 -12 10 -19 10 -27 2 -8 -8 -1 -13
23 -20 46 -12 71 -4 64 18 -3 10 -1 21 5 25 5 3 10 1 10 -4 0 -6 5 -11 12 -11
7 0 6 6 -4 18 -14 16 -30 48 -32 64 -2 14 -17 21 -49 23 -17 1 -43 5 -57 9
-24 9 -24 9 -7 -18z m47 -36 c0 -10 -6 -20 -13 -23 -9 -3 -13 5 -13 29 0 26 3
31 13 22 7 -6 13 -18 13 -28z"/>
<path d="M1342 2247 c-8 -10 -6 -13 9 -13 10 0 19 6 19 13 0 7 -4 13 -9 13 -5
0 -13 -6 -19 -13z"/>
<path d="M1823 2238 c4 -15 3 -28 -4 -30 -5 -2 -7 -11 -3 -22 6 -15 9 -13 20
14 12 28 12 34 -3 48 -15 16 -16 15 -10 -10z"/>
<path d="M4226 2215 c-3 -9 0 -15 9 -15 9 0 12 6 9 15 -4 8 -7 15 -9 15 -2 0
-5 -7 -9 -15z"/>
<path d="M2610 2205 c7 -8 17 -15 22 -15 5 0 3 7 -6 15 -8 8 -18 15 -22 15 -3
0 -1 -7 6 -15z"/>
<path d="M1697 2189 c-3 -11 -15 -23 -26 -26 -11 -3 -18 -10 -15 -15 3 -5 17
-7 30 -4 21 6 25 2 30 -23 4 -18 11 -28 19 -25 16 7 14 36 -3 50 -8 5 -13 17
-12 25 6 40 -13 56 -23 18z"/>
<path d="M2465 2200 c3 -5 11 -10 16 -10 6 0 7 5 4 10 -3 6 -11 10 -16 10 -6
0 -7 -4 -4 -10z"/>
<path d="M2694 2198 c3 -10 9 -25 12 -33 3 -8 1 -15 -5 -15 -6 0 -11 7 -11 15
0 18 -8 19 -23 2 -15 -16 -20 -37 -8 -37 5 0 16 -2 24 -6 8 -3 21 5 30 20 15
23 15 26 -4 48 -15 17 -19 18 -15 6z"/>
<path d="M3195 2200 c3 -5 11 -10 16 -10 6 0 7 5 4 10 -3 6 -11 10 -16 10 -6
0 -7 -4 -4 -10z"/>
<path d="M1780 2193 c0 -7 -6 -13 -14 -13 -21 0 -8 -46 15 -47 27 -2 31 11 14
43 -8 16 -15 23 -15 17z"/>
<path d="M3920 2190 c0 -5 5 -10 11 -10 5 0 7 5 4 10 -3 6 -8 10 -11 10 -2 0
-4 -4 -4 -10z"/>
<path d="M2737 2179 c7 -7 15 -10 18 -7 3 3 -2 9 -12 12 -14 6 -15 5 -6 -5z"/>
<path d="M4186 2169 c6 -8 13 -21 16 -28 4 -13 5 -13 10 0 4 9 -2 21 -15 29
-19 11 -20 11 -11 -1z"/>
<path d="M1608 2163 c7 -3 16 -2 19 1 4 3 -2 6 -13 5 -11 0 -14 -3 -6 -6z"/>
<path d="M2375 2161 c-3 -5 -1 -12 5 -16 5 -3 10 1 10 9 0 18 -6 21 -15 7z"/>
<path d="M2442 2138 c7 -15 15 -23 17 -17 2 6 -4 18 -13 27 -15 15 -15 15 -4
-10z"/>
<path d="M4016 2144 c-9 -23 -7 -36 4 -29 16 10 12 -22 -5 -39 -16 -15 -4 -33
15 -21 6 3 10 -1 10 -9 0 -9 -6 -16 -14 -16 -9 0 -13 -9 -11 -25 1 -14 -2 -28
-7 -31 -11 -7 10 -34 26 -34 6 0 5 4 -3 9 -8 6 -11 16 -6 31 7 21 8 21 17 6
15 -27 30 -7 23 30 -3 21 -2 34 5 34 5 0 10 -8 11 -17 0 -12 2 -13 6 -5 4 10
8 10 19 1 12 -10 17 -5 30 29 10 24 25 43 38 46 20 6 20 7 2 17 -16 10 -22 8
-36 -11 -10 -13 -30 -24 -51 -26 -29 -3 -36 0 -46 22 -6 14 -9 32 -6 40 3 8 1
14 -5 14 -5 0 -13 -7 -16 -16z"/>
<path d="M895 2140 c3 -5 1 -10 -5 -10 -6 0 -8 -5 -5 -10 5 -8 11 -7 21 1 14
12 10 29 -7 29 -6 0 -7 -4 -4 -10z"/>
<path d="M1570 2120 c0 -7 -7 -10 -14 -7 -10 4 -13 1 -9 -9 6 -15 53 -20 53
-5 0 5 -7 14 -15 21 -12 10 -15 10 -15 0z"/>
<path d="M1465 2110 c3 -5 8 -10 11 -10 2 0 4 5 4 10 0 6 -5 10 -11 10 -5 0
-7 -4 -4 -10z"/>
<path d="M2065 2110 c3 -5 10 -10 16 -10 5 0 9 5 9 10 0 6 -7 10 -16 10 -8 0
-12 -4 -9 -10z"/>
<path d="M2720 2100 c0 -5 7 -7 15 -4 8 4 15 8 15 10 0 2 -7 4 -15 4 -8 0 -15
-4 -15 -10z"/>
<path d="M964 2084 c3 -9 6 -18 6 -20 0 -3 4 -3 10 1 11 7 2 35 -12 35 -6 0
-7 -7 -4 -16z"/>
<path d="M1807 2084 c2 -7 17 -14 33 -16 22 -3 27 -1 20 7 -5 7 -7 15 -4 18 4
4 -7 5 -23 4 -18 -1 -29 -7 -26 -13z"/>
<path d="M2571 2074 c0 -11 3 -14 6 -6 3 7 2 16 -1 19 -3 4 -6 -2 -5 -13z"/>
<path d="M1595 2054 c1 -15 8 -30 15 -34 6 -4 11 -11 10 -16 -1 -5 2 -10 7
-11 10 -4 10 32 -1 65 -10 31 -35 29 -31 -4z"/>
<path d="M2320 2060 c0 -10 -9 -24 -20 -30 -11 -6 -18 -15 -14 -21 4 -6 11 -6
20 2 11 9 14 8 14 -9 0 -11 -7 -25 -15 -32 -9 -7 -13 -15 -11 -17 7 -7 40 28
55 60 8 15 18 27 23 27 17 0 7 17 -17 28 -34 16 -35 15 -35 -8z m30 -10 c0 -5
-5 -10 -11 -10 -5 0 -7 5 -4 10 3 6 8 10 11 10 2 0 4 -4 4 -10z"/>
<path d="M1825 2030 c3 -5 8 -10 11 -10 2 0 4 5 4 10 0 6 -5 10 -11 10 -5 0
-7 -4 -4 -10z"/>
<path d="M2727 2033 c-4 -3 -7 -11 -7 -17 0 -6 5 -5 12 2 6 6 9 14 7 17 -3 3
-9 2 -12 -2z"/>
<path d="M2580 2019 c0 -5 5 -7 10 -4 6 3 10 8 10 11 0 2 -4 4 -10 4 -5 0 -10
-5 -10 -11z"/>
<path d="M3250 2024 c0 -3 7 -12 15 -21 20 -19 32 -9 15 12 -12 15 -30 20 -30
9z"/>
<path d="M3886 1791 c-15 -6 -16 -10 -7 -15 8 -5 20 -2 29 8 17 17 9 19 -22 7z"/>
<path d="M3830 1780 c0 -5 5 -10 10 -10 6 0 10 5 10 10 0 6 -4 10 -10 10 -5 0
-10 -4 -10 -10z"/>
<path d="M3477 1721 c-4 -16 9 -31 26 -31 1 0 3 11 3 25 2 30 -21 34 -29 6z"/>
<path d="M1583 1613 c2 -12 6 -26 10 -29 11 -11 8 19 -3 36 -8 12 -9 10 -7 -7z"/>
<path d="M2235 1600 c-6 -10 7 -14 34 -10 10 1 10 -3 -3 -15 -9 -10 -14 -20
-11 -24 10 -9 34 29 28 45 -6 16 -39 19 -48 4z"/>
<path d="M2940 1575 c7 -8 18 -15 25 -15 6 0 12 7 12 15 0 9 -10 15 -25 15
-21 0 -22 -2 -12 -15z"/>
<path d="M3500 1569 c0 -5 5 -7 10 -4 6 3 10 8 10 11 0 2 -4 4 -10 4 -5 0 -10
-5 -10 -11z"/>
<path d="M3345 1563 c6 -4 10 -14 10 -22 0 -8 5 -16 11 -18 6 -2 10 7 9 19 -1
14 -9 24 -21 26 -11 2 -15 0 -9 -5z"/>
<path d="M3310 1553 c0 -17 19 -37 27 -29 4 5 2 11 -5 13 -6 3 -10 9 -6 14 3
5 0 9 -5 9 -6 0 -11 -3 -11 -7z"/>
<path d="M1540 1535 c-14 -16 12 -29 28 -13 8 8 16 8 27 -2 9 -8 15 -8 15 -2
0 24 -53 37 -70 17z"/>
<path d="M3488 1543 c7 -3 16 -2 19 1 4 3 -2 6 -13 5 -11 0 -14 -3 -6 -6z"/>
<path d="M2324 1516 c-3 -7 -4 -17 -3 -22 4 -21 -2 -26 -16 -14 -13 10 -15 9
-15 -9 0 -12 -4 -20 -9 -16 -5 3 -12 1 -16 -5 -3 -5 1 -10 10 -10 12 0 13 -4
6 -18 -7 -13 -6 -19 2 -19 7 0 20 -4 30 -8 12 -5 17 -2 17 9 0 9 5 16 10 16 6
0 10 -4 10 -10 0 -5 5 -10 11 -10 6 0 9 7 5 15 -4 11 1 15 18 15 14 0 30 10
41 26 13 20 19 23 31 14 7 -7 11 -17 8 -24 -3 -6 0 -4 8 4 7 9 22 14 33 12 18
-2 19 -2 2 8 -9 6 -15 16 -11 22 4 6 -1 8 -14 4 -13 -4 -31 0 -48 10 -24 17
-27 17 -36 1 -12 -23 -23 -21 -36 6 -6 12 -11 16 -11 10 -1 -7 -6 -13 -12 -13
-5 0 -7 5 -4 10 3 6 4 10 0 10 -3 0 -8 -6 -11 -14z m51 -46 c3 -5 1 -10 -4
-10 -6 0 -11 5 -11 10 0 6 2 10 4 10 3 0 8 -4 11 -10z"/>
<path d="M3465 1520 c4 -6 11 -8 16 -5 14 9 11 15 -7 15 -8 0 -12 -5 -9 -10z"/>
<path d="M1561 1506 c-9 -11 -19 -13 -37 -5 -17 6 -23 6 -19 -1 3 -6 12 -10
20 -10 19 0 46 -30 39 -42 -4 -7 -2 -8 4 -4 8 5 9 13 2 25 -6 12 -5 22 2 29 7
7 9 14 6 17 -3 3 -11 -1 -17 -9z"/>
<path d="M1795 1510 c4 -6 11 -8 16 -5 14 9 11 15 -7 15 -8 0 -12 -5 -9 -10z"/>
<path d="M2204 1505 c3 -21 16 -31 16 -12 0 9 -4 18 -9 21 -5 4 -8 -1 -7 -9z"/>
<path d="M3345 1500 c-3 -5 3 -10 15 -10 12 0 18 5 15 10 -3 6 -10 10 -15 10
-5 0 -12 -4 -15 -10z"/>
<path d="M3404 1486 c-14 -29 -5 -49 16 -36 13 8 12 10 -3 10 -17 0 -17 1 -3
16 17 16 21 34 9 34 -5 0 -13 -11 -19 -24z"/>
<path d="M1765 1490 c-3 -6 1 -7 9 -4 18 7 21 14 7 14 -6 0 -13 -4 -16 -10z"/>
<path d="M2619 1493 c-1 -4 -1 -11 0 -15 0 -5 -6 -8 -14 -8 -8 0 -15 -5 -15
-11 0 -6 9 -8 21 -4 16 5 20 3 17 -11 -2 -11 4 -20 15 -22 9 -2 17 2 17 8 0 6
-4 8 -10 5 -5 -3 -10 -2 -10 4 0 5 6 11 13 14 9 3 9 9 1 23 -11 20 -33 31 -35
17z"/>
<path d="M2760 1472 c0 -5 6 -9 13 -10 6 -1 26 -4 42 -7 22 -5 26 -4 15 4 -8
5 -18 7 -22 5 -4 -3 -8 0 -8 5 0 6 -9 11 -20 11 -11 0 -20 -4 -20 -8z"/>
<path d="M3255 1449 c-3 -4 2 -6 10 -5 21 3 28 13 10 13 -9 0 -18 -4 -20 -8z"/>
<path d="M1985 1439 c-10 -14 -1 -21 19 -13 9 3 13 10 10 15 -7 12 -21 11 -29
-2z"/>
<path d="M2118 1413 c7 -3 16 -2 19 1 4 3 -2 6 -13 5 -11 0 -14 -3 -6 -6z"/>
<path d="M2665 1400 c3 -5 8 -10 11 -10 2 0 4 5 4 10 0 6 -5 10 -11 10 -5 0
-7 -4 -4 -10z"/>
<path d="M2376 1375 c-18 -27 -21 -39 -7 -31 5 4 11 1 13 -4 2 -7 11 -4 23 5
19 16 19 16 -5 9 -25 -7 -25 -6 -7 14 10 11 14 23 9 26 -6 3 -17 -5 -26 -19z"/>
<path d="M2957 1363 c-4 -3 -7 -11 -7 -17 0 -6 5 -5 12 2 6 6 9 14 7 17 -3 3
-9 2 -12 -2z"/>
<path d="M2153 1325 c2 -5 10 -10 17 -10 7 0 15 5 17 10 2 6 -6 11 -17 11 -11
0 -19 -5 -17 -11z"/>
<path d="M2410 1330 c-8 -5 -12 -12 -9 -15 4 -3 12 1 19 10 14 17 11 19 -10 5z"/>
<path d="M2570 1330 c0 -5 5 -10 11 -10 5 0 7 5 4 10 -3 6 -8 10 -11 10 -2 0
-4 -4 -4 -10z"/>
<path d="M2315 1300 c3 -5 8 -10 11 -10 2 0 4 5 4 10 0 6 -5 10 -11 10 -5 0
-7 -4 -4 -10z"/>
<path d="M3095 1250 c3 -5 11 -10 16 -10 6 0 7 5 4 10 -3 6 -11 10 -16 10 -6
0 -7 -4 -4 -10z"/>
<path d="M2320 1230 c-9 -6 -10 -10 -3 -10 6 0 15 5 18 10 8 12 4 12 -15 0z"/>
<path d="M2265 1160 c3 -5 8 -10 11 -10 2 0 4 5 4 10 0 6 -5 10 -11 10 -5 0
-7 -4 -4 -10z"/>
<path d="M2405 920 c3 -5 8 -10 11 -10 2 0 4 5 4 10 0 6 -5 10 -11 10 -5 0 -7
-4 -4 -10z"/>
</g>
</svg>
